<svg width="16" height="16" viewBox="0 0 16 16" fill="none" xmlns="http://www.w3.org/2000/svg">
<path d="M8 6.36255L9.00412 0L8.39945 6.41395L10.9501 0.499312L8.77325 6.56081L12.7128 1.47224L9.09574 6.79578L14.1787 2.84901L9.35227 7.10785L15.2524 4.54888L9.52451 7.47132L15.8754 6.46168L9.60147 7.86783L16 8.47361L9.57581 8.26801L15.6225 10.4488L9.45121 8.65351L14.7687 12.2735L9.235 8.99128L13.486 13.8229L8.94182 9.26664L11.8626 15.005L8.59001 9.46122L9.99359 15.7467L8.20156 9.56035L8 16L7.79844 9.56035L6.00641 15.7467L7.40999 9.46122L4.13743 15.005L7.05818 9.26664L2.51397 13.8229L6.765 8.99128L1.23133 12.2735L6.54879 8.65351L0.377462 10.4488L6.42419 8.26801L0 8.47361L6.39853 7.86783L0.124599 6.46168L6.47549 7.47132L0.747595 4.54888L6.64773 7.10785L1.82135 2.84901L6.90426 6.79578L3.28722 1.47224L7.22675 6.56081L5.04993 0.499312L7.60055 6.41395L6.99588 0L8 6.36255Z" fill="#8120A5"/>
</svg>
