<svg width="440" height="568" viewBox="0 0 440 568" fill="none" xmlns="http://www.w3.org/2000/svg">
<g opacity="0.8" filter="url(#filter0_f_57_1591)">
<ellipse cx="6.1306" cy="616.061" rx="311.206" ry="318.613" transform="rotate(143.056 6.1306 616.061)" fill="#D9D9D9"/>
<ellipse cx="6.1306" cy="616.061" rx="311.206" ry="318.613" transform="rotate(143.056 6.1306 616.061)" fill="url(#paint0_linear_57_1591)"/>
</g>
<path d="M286.847 415.566C295.103 413.124 303.037 409.226 310.377 403.868C345.187 378.458 352.793 329.349 327.252 294.36C301.71 259.371 252.651 251.694 217.842 277.104C210.502 282.462 204.404 288.875 199.53 295.95C191.274 298.392 183.34 302.29 176 307.648C168.66 313.006 162.562 319.419 157.688 326.494C149.432 328.936 141.498 332.834 134.158 338.192C99.3483 363.602 91.7419 412.711 117.283 447.7C142.825 482.69 191.872 490.442 226.725 465C234.065 459.642 240.164 453.229 245.037 446.154C253.293 443.712 261.227 439.814 268.567 434.456C275.907 429.098 282.005 422.685 286.847 415.566ZM219.452 279.311C253.075 254.766 300.447 262.254 325.086 296.008C349.726 329.762 342.422 377.162 308.799 401.706C302.645 406.198 296.036 409.603 289.198 411.957C305.095 385.743 304.626 351.321 285.398 324.98C266.169 298.639 233.528 287.702 203.716 294.856C208.042 289.06 213.299 283.802 219.452 279.311ZM201.011 386.581C214.184 404.627 233.661 415.434 254.186 418.171C252.2 427.263 248.562 435.939 243.33 443.816C213.711 452.248 180.627 441.906 161.399 415.565C142.17 389.223 142.413 354.485 159.459 328.921C168.556 326.338 177.927 325.517 187.193 326.396C183.48 346.691 187.838 368.535 201.011 386.581ZM203.209 384.977C190.454 367.504 186.263 346.35 189.849 326.621C209.733 329.218 228.604 339.655 241.358 357.128C254.113 374.6 258.304 395.754 254.718 415.484C234.834 412.887 215.963 402.449 203.209 384.977ZM243.556 355.524C230.383 337.478 210.906 326.671 190.381 323.934C192.367 314.841 196.005 306.166 201.237 298.289C230.856 289.856 263.94 300.199 283.168 326.54C302.397 352.881 302.154 387.619 285.108 413.184C276.011 415.766 266.64 416.587 257.374 415.708C261.087 395.413 256.729 373.57 243.556 355.524ZM177.61 309.854C183.763 305.363 190.373 301.958 197.211 299.604C192.703 307.088 189.464 315.202 187.659 323.621C179.091 322.774 170.344 323.342 161.874 325.399C166.2 319.604 171.457 314.346 177.61 309.854ZM225.115 462.794C191.492 487.338 144.12 479.85 119.481 446.096C94.8413 412.343 102.145 364.942 135.768 340.398C141.922 335.906 148.531 332.502 155.369 330.148C139.472 356.362 139.941 390.783 159.169 417.125C178.398 443.466 211.039 454.402 240.851 447.249C236.525 453.044 231.268 458.302 225.115 462.794ZM256.908 418.484C265.476 419.331 274.223 418.762 282.693 416.705C278.367 422.5 273.11 427.758 266.957 432.25C260.804 436.742 254.194 440.147 247.356 442.5C251.864 435.016 255.103 426.903 256.908 418.484Z" fill="white"/>
<circle cx="127.205" cy="447.205" r="91.1755" transform="rotate(-24.2073 127.205 447.205)" fill="url(#paint1_linear_57_1591)" fill-opacity="0.3" stroke="white"/>
<defs>
<filter id="filter0_f_57_1591" x="-607.787" y="0.0822754" width="1227.83" height="1231.96" filterUnits="userSpaceOnUse" color-interpolation-filters="sRGB">
<feFlood flood-opacity="0" result="BackgroundImageFix"/>
<feBlend mode="normal" in="SourceGraphic" in2="BackgroundImageFix" result="shape"/>
<feGaussianBlur stdDeviation="150" result="effect1_foregroundBlur_57_1591"/>
</filter>
<linearGradient id="paint0_linear_57_1591" x1="-154.818" y1="344.875" x2="285.527" y2="983.446" gradientUnits="userSpaceOnUse">
<stop stop-color="#E5DBE1"/>
<stop offset="0.222083" stop-color="#5C399B"/>
<stop offset="0.327824" stop-color="#8120A5"/>
<stop offset="0.695" stop-color="#ED3E44"/>
<stop offset="0.878708" stop-color="#F27D47"/>
</linearGradient>
<linearGradient id="paint1_linear_57_1591" x1="165.309" y1="439.99" x2="37.011" y2="465.638" gradientUnits="userSpaceOnUse">
<stop stop-color="white" stop-opacity="0"/>
<stop offset="0.751499" stop-color="white"/>
</linearGradient>
</defs>
</svg>
