<svg width="440" height="586" viewBox="0 0 440 586" fill="none" xmlns="http://www.w3.org/2000/svg">
<g opacity="0.8" filter="url(#filter0_f_57_1607)">
<ellipse cx="315.927" cy="570.786" rx="266.6" ry="272.945" transform="rotate(36.2803 315.927 570.786)" fill="#D9D9D9"/>
<ellipse cx="315.927" cy="570.786" rx="266.6" ry="272.945" transform="rotate(36.2803 315.927 570.786)" fill="url(#paint0_linear_57_1607)"/>
</g>
<g opacity="0.8">
<path d="M353.888 359.646C353.91 359.272 353.818 358.928 353.572 358.649C353.326 358.371 352.996 358.237 352.622 358.214L350.751 358.095C339.634 357.506 328.699 358.242 318.028 360.234C321.314 349.888 323.387 339.126 324.165 328.02L324.277 326.149C324.3 325.775 324.208 325.431 323.961 325.153C323.715 324.874 323.385 324.741 323.011 324.717L321.141 324.599C284.68 322.67 249.616 335.028 222.51 359.344C195.364 383.695 179.278 417.121 177.203 453.611C177.158 454.359 177.685 454.956 178.434 455.003C190.141 455.78 201.749 455.087 213.028 452.983C209.556 463.918 207.408 475.314 206.778 487.068C206.733 487.816 207.261 488.413 208.009 488.46C219.716 489.237 231.324 488.544 242.603 486.439C239.131 497.375 236.984 508.77 236.354 520.524C236.309 521.273 236.837 521.869 237.585 521.917C249.292 522.694 260.9 522 272.179 519.896C268.707 530.832 266.559 542.227 265.929 553.981C265.885 554.73 266.412 555.326 267.16 555.374C303.629 557.791 338.776 545.927 366.273 521.974C366.511 521.763 366.749 521.553 366.987 521.343C394.031 497.436 410.315 464.473 412.857 428.351L412.969 426.48C412.991 426.106 412.899 425.762 412.653 425.483C412.407 425.205 412.077 425.071 411.703 425.048L409.832 424.93C398.715 424.34 387.78 425.076 377.109 427.068C380.395 416.722 382.467 405.96 383.246 394.854L383.358 392.983C383.381 392.609 383.288 392.265 383.042 391.987C382.796 391.708 382.466 391.575 382.092 391.551L380.222 391.433C369.104 390.843 358.169 391.579 347.498 393.572C350.784 383.225 352.857 372.464 353.635 361.358L353.888 359.646ZM179.933 452.544C182.271 417.31 197.991 384.988 224.299 361.448C224.537 361.237 224.775 361.027 225.013 360.817C251.542 337.366 285.601 325.471 321.049 327.373L321.573 327.406L321.542 327.93C320.745 339.335 318.545 350.351 315.056 360.948C291.819 365.827 270.212 376.706 252.112 392.99C234.492 408.779 221.52 428.467 214.017 450.266C202.962 452.384 191.535 453.202 179.933 452.544ZM314.058 363.815C306.427 385.23 293.412 404.389 275.859 419.694C258.781 434.577 238.646 444.723 217.103 449.522C224.508 428.731 237.048 409.992 253.914 394.869C254.152 394.659 254.39 394.449 254.628 394.239C271.763 379.02 292.172 368.704 314.058 363.815ZM409.706 427.663L410.23 427.697L410.198 428.22C407.679 463.968 391.458 496.522 364.511 520.059C337.885 543.241 303.914 554.917 268.66 552.914C269.426 541.394 271.639 530.153 275.212 519.412C297.802 514.679 318.898 504.181 336.729 488.631C336.967 488.421 337.204 488.211 337.442 488C355.406 472.121 368.616 452.223 376.211 430.129C387.086 427.887 398.329 427.02 409.706 427.663ZM276.18 516.431C283.585 495.64 296.124 476.901 312.991 461.778C313.229 461.568 313.467 461.358 313.705 461.147C330.914 445.934 351.288 435.578 373.134 430.723C365.504 452.139 352.488 471.298 334.935 486.602C317.858 501.486 297.687 511.592 276.18 516.431ZM380.13 394.207L380.654 394.24L380.623 394.764C379.826 406.169 377.626 417.185 374.137 427.782C351.203 432.605 329.91 443.279 311.946 459.158C311.708 459.369 311.47 459.579 311.232 459.789C293.612 475.578 280.641 495.266 273.137 517.065C262.078 519.258 250.651 520.076 239.049 519.418C239.815 507.898 242.028 496.657 245.602 485.915C268.191 481.183 289.287 470.685 307.118 455.135C307.356 454.924 307.594 454.714 307.832 454.504C325.795 438.624 339.005 418.726 346.601 396.633C357.51 394.43 368.788 393.603 380.13 394.207ZM246.604 482.974C254.009 462.183 266.549 443.444 283.415 428.322C283.653 428.111 283.891 427.901 284.129 427.691C301.339 412.477 321.712 402.121 343.559 397.267C335.928 418.682 322.913 437.841 305.359 453.146C288.282 468.029 268.146 478.175 246.604 482.974ZM351.082 361.347C350.286 372.752 348.086 383.768 344.596 394.365C321.394 399.284 299.788 410.163 281.692 426.372C264.072 442.161 251.1 461.849 243.597 483.648C232.503 485.801 221.075 486.619 209.509 486.001C210.274 474.481 212.488 463.24 216.061 452.498C238.651 447.766 259.747 437.268 277.577 421.718C277.815 421.507 278.053 421.297 278.291 421.087C296.255 405.207 309.464 385.309 317.06 363.216C327.93 361.048 339.208 360.221 350.625 360.829L351.149 360.862L351.082 361.347Z" fill="white"/>
</g>
<path d="M316.323 255.835C313.478 318.487 268.406 443.11 110.877 440.392C113.346 378.401 157.893 254.702 316.323 255.835Z" fill="url(#paint1_radial_57_1607)" fill-opacity="0.3" stroke="white" stroke-opacity="0.8"/>
<defs>
<filter id="filter0_f_57_1607" x="-252.928" y="0.0255127" width="1137.71" height="1141.52" filterUnits="userSpaceOnUse" color-interpolation-filters="sRGB">
<feFlood flood-opacity="0" result="BackgroundImageFix"/>
<feBlend mode="normal" in="SourceGraphic" in2="BackgroundImageFix" result="shape"/>
<feGaussianBlur stdDeviation="150" result="effect1_foregroundBlur_57_1607"/>
</filter>
<linearGradient id="paint0_linear_57_1607" x1="178.048" y1="338.47" x2="555.276" y2="885.513" gradientUnits="userSpaceOnUse">
<stop stop-color="#E5DBE1"/>
<stop offset="0.222083" stop-color="#5C399B"/>
<stop offset="0.327824" stop-color="#8120A5"/>
<stop offset="0.695" stop-color="#ED3E44"/>
<stop offset="0.878708" stop-color="#F27D47"/>
</linearGradient>
<radialGradient id="paint1_radial_57_1607" cx="0" cy="0" r="1" gradientUnits="userSpaceOnUse" gradientTransform="translate(250.094 383.281) rotate(-132.783) scale(109.684 236.637)">
<stop offset="0.295017" stop-color="white" stop-opacity="0"/>
<stop offset="1" stop-color="white"/>
</radialGradient>
</defs>
</svg>
