<svg xmlns="http://www.w3.org/2000/svg" width="16" height="16" viewBox="0 0 16 16" fill="none">
    <path d="M9.32698 8.00019L15.2258 2.1014C15.3129 2.01433 15.3821 1.91094 15.4292 1.79714C15.4764 1.68334 15.5007 1.56135 15.5007 1.43816C15.5007 1.31497 15.4764 1.19298 15.4292 1.07918C15.3821 0.965378 15.3129 0.861988 15.2258 0.774923C15.1387 0.687768 15.0353 0.618627 14.9215 0.571454C14.8077 0.524281 14.6857 0.5 14.5625 0.5C14.4393 0.5 14.3173 0.524281 14.2035 0.571454C14.0897 0.618627 13.9864 0.687768 13.8993 0.774923L8.0005 6.67371L2.1014 0.774923C2.01433 0.687768 1.91094 0.618627 1.79714 0.571454C1.68334 0.524281 1.56135 0.5 1.43816 0.5C1.31497 0.5 1.19298 0.524281 1.07918 0.571454C0.965378 0.618627 0.861988 0.687768 0.774923 0.774923C0.687768 0.861988 0.618627 0.965378 0.571454 1.07918C0.524281 1.19298 0.5 1.31497 0.5 1.43816C0.5 1.56135 0.524281 1.68334 0.571454 1.79714C0.618627 1.91094 0.687768 2.01433 0.774923 2.1014L6.67402 8.00019L0.774923 13.899C0.687846 13.9861 0.618776 14.0895 0.571658 14.2033C0.52454 14.317 0.500297 14.439 0.500311 14.5622C0.500326 14.6853 0.524598 14.8073 0.571743 14.9211C0.618888 15.0348 0.687981 15.1382 0.775079 15.2253C0.862177 15.3124 0.965573 15.3814 1.07936 15.4286C1.19315 15.4757 1.31511 15.4999 1.43827 15.4999C1.56143 15.4999 1.68338 15.4756 1.79716 15.4285C1.91094 15.3813 2.01432 15.3122 2.1014 15.2251L8.0005 9.32635L13.8993 15.2251C14.0825 15.4084 14.3227 15.5 14.5625 15.5C14.8024 15.5 15.0425 15.4084 15.2258 15.2251C15.3129 15.1381 15.3821 15.0347 15.4292 14.9209C15.4764 14.8071 15.5007 14.6851 15.5007 14.5619C15.5007 14.4387 15.4764 14.3167 15.4292 14.2029C15.3821 14.0891 15.3129 13.9857 15.2258 13.8987L9.32698 8.00019Z" fill="#8A7C88" />
</svg>