<svg xmlns="http://www.w3.org/2000/svg" width="1193" height="1323" viewBox="0 0 1193 1323" fill="none">
    <g filter="url(#filter0_f_87_1734)">
        <ellipse cx="596.23" cy="661.399" rx="257.397" ry="484.536" transform="rotate(36.2803 596.23 661.399)" fill="url(#paint0_linear_87_1734)" fill-opacity="0.8" />
    </g>
    <path d="M861.106 773.717C854.494 785.169 841.381 792.285 823.092 795.211C804.811 798.136 781.487 796.851 754.684 791.623C701.087 781.17 633.76 754.989 565.43 715.539C497.1 676.089 440.764 630.872 404.912 589.682C386.983 569.084 374.208 549.528 367.601 532.233C360.991 514.931 360.596 500.018 367.209 488.565C373.821 477.112 386.933 469.997 405.223 467.071C423.504 464.145 446.828 465.431 473.63 470.658C527.228 481.112 594.555 507.292 662.884 546.743C731.214 586.193 787.551 631.409 823.402 672.599C841.331 693.198 854.106 712.754 860.713 730.048C867.324 747.351 867.718 762.264 861.106 773.717Z" stroke="white" stroke-opacity="0.3" stroke-width="1.61288" />
    <path d="M577.053 863.471L571.614 855.912L567.788 864.402L577.053 863.471ZM502.526 824.489C434.196 785.039 377.859 739.823 342.008 698.633C324.079 678.034 311.304 658.478 304.697 641.184C298.086 623.881 297.692 608.968 304.304 597.515L302.907 596.709C295.953 608.755 296.493 624.23 303.19 641.759C309.89 659.297 322.795 679.016 340.791 699.691C376.788 741.049 433.277 786.371 501.719 825.886L502.526 824.489ZM304.304 597.515C310.916 586.062 324.029 578.947 342.318 576.021C360.599 573.096 383.923 574.381 410.726 579.609C464.324 590.062 531.65 616.243 599.98 655.693L600.787 654.296C532.345 614.781 464.85 588.522 411.035 578.026C384.131 572.779 360.602 571.462 342.064 574.428C323.534 577.393 309.862 584.663 302.907 596.709L304.304 597.515ZM599.98 655.693C668.31 695.143 724.646 740.36 760.498 781.55C778.427 802.148 791.202 821.704 797.809 838.999C804.419 856.301 804.814 871.214 798.202 882.667L799.598 883.473C806.553 871.427 806.013 855.953 799.316 838.423C792.616 820.886 779.711 801.166 761.715 780.491C725.717 739.134 669.228 693.811 600.787 654.296L599.98 655.693ZM570.772 859.755C548.46 849.569 525.549 837.782 502.526 824.489L501.719 825.886C524.785 839.203 547.742 851.014 570.102 861.223L570.772 859.755ZM798.202 882.667C792.805 892.014 783.084 898.47 769.742 902.121C756.397 905.774 739.494 906.6 719.87 904.729L719.717 906.334C739.453 908.216 756.568 907.399 770.168 903.677C783.772 899.954 793.924 893.302 799.598 883.473L798.202 882.667Z" fill="white" fill-opacity="0.8" />
    <path d="M452.793 910.317L452.39 911.015L452.368 911.003L452.347 910.989L452.793 910.317ZM254.975 682.644C254.752 683.03 254.259 683.162 253.873 682.94C253.488 682.717 253.355 682.224 253.578 681.838L254.975 682.644ZM367.753 853.803L377.046 854.388L371.892 862.144L367.753 853.803ZM375.286 857.841C375.657 858.087 375.758 858.588 375.511 858.959C375.265 859.33 374.764 859.43 374.393 859.184L375.286 857.841ZM388.567 868.603C388.196 868.356 388.095 867.856 388.341 867.485C388.588 867.114 389.088 867.013 389.459 867.26L388.567 868.603ZM403.633 876.679C404.004 876.925 404.104 877.426 403.858 877.797C403.611 878.168 403.111 878.268 402.74 878.022L403.633 876.679ZM416.913 887.441C416.542 887.194 416.441 886.694 416.688 886.323C416.934 885.952 417.435 885.851 417.806 886.098L416.913 887.441ZM431.979 895.517C432.35 895.763 432.451 896.264 432.205 896.635C431.958 897.006 431.458 897.107 431.087 896.86L431.979 895.517ZM445.26 906.279C444.889 906.033 444.788 905.532 445.035 905.161C445.281 904.79 445.782 904.689 446.153 904.936L445.26 906.279ZM460.158 913.594C460.546 913.813 460.682 914.305 460.463 914.693C460.244 915.081 459.752 915.217 459.365 914.998L460.158 913.594ZM473.387 922.743C472.995 922.531 472.849 922.042 473.06 921.65C473.272 921.258 473.761 921.112 474.153 921.324L473.387 922.743ZM488.292 928.78C488.688 928.984 488.844 929.47 488.64 929.866C488.436 930.262 487.949 930.418 487.553 930.214L488.292 928.78ZM501.861 937.402C501.461 937.206 501.295 936.723 501.491 936.323C501.687 935.923 502.17 935.758 502.57 935.953L501.861 937.402ZM516.992 942.835C517.395 943.022 517.571 943.502 517.383 943.906C517.196 944.31 516.716 944.485 516.312 944.298L516.992 942.835ZM530.93 950.897C530.522 950.719 530.336 950.243 530.515 949.835C530.694 949.427 531.17 949.241 531.578 949.42L530.93 950.897ZM546.299 955.679C546.711 955.848 546.908 956.32 546.738 956.731C546.568 957.143 546.097 957.34 545.685 957.17L546.299 955.679ZM560.572 963.093C560.157 962.933 559.949 962.466 560.109 962.051C560.268 961.635 560.735 961.427 561.15 961.587L560.572 963.093ZM576.122 967.116C576.542 967.264 576.762 967.725 576.613 968.145C576.464 968.565 576.003 968.785 575.583 968.636L576.122 967.116ZM590.779 973.787C590.355 973.65 590.122 973.195 590.259 972.772C590.396 972.348 590.851 972.115 591.275 972.252L590.779 973.787ZM606.562 976.937C606.99 977.061 607.237 977.508 607.113 977.936C606.989 978.363 606.542 978.61 606.114 978.486L606.562 976.937ZM621.551 982.668C621.119 982.559 620.857 982.121 620.966 981.689C621.075 981.257 621.513 980.995 621.945 981.104L621.551 982.668ZM637.548 984.711C637.984 984.802 638.263 985.229 638.172 985.665C638.08 986.101 637.653 986.381 637.217 986.289L637.548 984.711ZM652.957 989.212C652.518 989.142 652.218 988.728 652.289 988.288C652.36 987.849 652.773 987.549 653.213 987.62L652.957 989.212ZM669.049 989.711C669.492 989.756 669.815 990.152 669.77 990.595C669.725 991.038 669.33 991.361 668.886 991.316L669.049 989.711ZM684.927 992.372C684.482 992.36 684.131 991.99 684.143 991.544C684.155 991.099 684.525 990.748 684.97 990.76L684.927 992.372ZM700.884 990.435C701.328 990.402 701.715 990.736 701.747 991.18C701.78 991.624 701.446 992.011 701.002 992.044L700.884 990.435ZM716.925 989.776C716.491 989.873 716.06 989.599 715.963 989.164C715.866 988.729 716.139 988.298 716.574 988.201L716.925 989.776ZM731.544 983.146C731.945 982.952 732.428 983.12 732.622 983.521C732.816 983.922 732.648 984.404 732.247 984.598L731.544 983.146ZM745.402 975.157C745.098 975.482 744.587 975.499 744.262 975.195C743.937 974.891 743.92 974.381 744.224 974.055L745.402 975.157ZM751.969 960.641C752.098 960.215 752.549 959.975 752.975 960.104C753.401 960.234 753.641 960.684 753.512 961.11L751.969 960.641ZM755.11 944.998C755.143 945.442 754.809 945.828 754.365 945.861C753.921 945.893 753.534 945.559 753.502 945.115L755.11 944.998ZM750.395 929.623C750.261 929.198 750.498 928.745 750.923 928.612C751.348 928.478 751.8 928.715 751.934 929.14L750.395 929.623ZM745.936 914.216C746.13 914.617 745.962 915.099 745.561 915.293C745.16 915.487 744.678 915.319 744.484 914.918L745.936 914.216ZM736.809 900.974C736.576 900.594 736.694 900.098 737.074 899.865C737.453 899.632 737.95 899.75 738.183 900.13L736.809 900.974ZM729.248 886.767C729.509 887.128 729.427 887.632 729.066 887.892C728.704 888.153 728.2 888.071 727.94 887.71L729.248 886.767ZM718.211 875.041C717.929 874.696 717.982 874.188 718.327 873.907C718.673 873.626 719.181 873.678 719.462 874.023L718.211 875.041ZM709.06 861.853C709.357 862.185 709.329 862.695 708.997 862.992C708.665 863.289 708.155 863.261 707.858 862.929L709.06 861.853ZM696.933 851.22C696.623 850.901 696.631 850.39 696.95 850.08C697.27 849.77 697.781 849.777 698.091 850.097L696.933 851.22ZM686.751 838.819C687.072 839.128 687.082 839.638 686.774 839.959C686.465 840.281 685.954 840.291 685.633 839.982L686.751 838.819ZM673.932 829.085C673.602 828.786 673.576 828.276 673.875 827.946C674.173 827.615 674.683 827.589 675.014 827.888L673.932 829.085ZM662.955 817.304C663.294 817.593 663.334 818.102 663.045 818.441C662.756 818.78 662.247 818.82 661.908 818.531L662.955 817.304ZM649.634 808.329C649.288 808.049 649.234 807.541 649.515 807.195C649.795 806.849 650.303 806.795 650.649 807.076L649.634 808.329ZM638.076 797.144C638.429 797.416 638.495 797.922 638.223 798.275C637.951 798.628 637.444 798.694 637.092 798.422L638.076 797.144ZM624.311 788.801C623.952 788.538 623.875 788.033 624.139 787.674C624.403 787.315 624.907 787.238 625.266 787.502L624.311 788.801ZM612.242 778.143C612.606 778.399 612.694 778.902 612.438 779.266C612.182 779.63 611.679 779.718 611.315 779.462L612.242 778.143ZM598.145 770.414C597.775 770.165 597.677 769.664 597.925 769.295C598.174 768.925 598.675 768.827 599.044 769.075L598.145 770.414ZM585.666 760.279C586.04 760.52 586.149 761.019 585.908 761.393C585.667 761.768 585.168 761.876 584.793 761.635L585.666 760.279ZM571.266 753.119C570.887 752.885 570.769 752.388 571.002 752.009C571.236 751.63 571.733 751.512 572.112 751.746L571.266 753.119ZM558.394 743.474C558.778 743.701 558.905 744.195 558.679 744.579C558.453 744.962 557.958 745.09 557.574 744.863L558.394 743.474ZM543.689 736.847C543.302 736.628 543.165 736.136 543.384 735.748C543.603 735.36 544.095 735.223 544.483 735.442L543.689 736.847ZM530.46 727.698C530.852 727.91 530.998 728.399 530.787 728.791C530.575 729.183 530.086 729.329 529.694 729.117L530.46 727.698ZM515.555 721.661C515.159 721.457 515.004 720.97 515.208 720.575C515.411 720.179 515.898 720.023 516.294 720.227L515.555 721.661ZM501.986 713.039C502.386 713.235 502.552 713.718 502.356 714.118C502.16 714.518 501.677 714.683 501.277 714.487L501.986 713.039ZM486.856 707.606C486.452 707.418 486.276 706.939 486.464 706.535C486.652 706.131 487.131 705.955 487.535 706.143L486.856 707.606ZM472.917 699.543C473.325 699.722 473.511 700.198 473.332 700.606C473.153 701.014 472.678 701.199 472.27 701.02L472.917 699.543ZM457.548 694.762C457.136 694.592 456.94 694.121 457.109 693.709C457.279 693.297 457.75 693.101 458.162 693.271L457.548 694.762ZM443.275 687.348C443.69 687.508 443.898 687.974 443.739 688.39C443.579 688.806 443.113 689.014 442.697 688.854L443.275 687.348ZM427.725 683.325C427.305 683.176 427.085 682.715 427.234 682.296C427.383 681.876 427.844 681.656 428.264 681.805L427.725 683.325ZM413.069 676.654C413.492 676.791 413.725 677.245 413.588 677.669C413.451 678.093 412.996 678.325 412.573 678.189L413.069 676.654ZM397.285 673.504C396.857 673.38 396.61 672.933 396.734 672.505C396.858 672.077 397.305 671.831 397.733 671.954L397.285 673.504ZM382.296 667.773C382.728 667.882 382.99 668.32 382.881 668.752C382.772 669.184 382.334 669.446 381.902 669.337L382.296 667.773ZM366.299 665.73C365.863 665.639 365.584 665.211 365.675 664.775C365.767 664.339 366.194 664.06 366.63 664.151L366.299 665.73ZM350.89 661.228C351.33 661.299 351.629 661.713 351.558 662.152C351.488 662.592 351.074 662.891 350.634 662.821L350.89 661.228ZM334.798 660.729C334.355 660.684 334.032 660.289 334.077 659.846C334.122 659.403 334.518 659.08 334.961 659.125L334.798 660.729ZM318.92 658.068C319.365 658.08 319.717 658.451 319.705 658.896C319.693 659.342 319.322 659.693 318.877 659.681L318.92 658.068ZM302.963 660.006C302.519 660.038 302.132 659.705 302.1 659.261C302.067 658.816 302.401 658.43 302.845 658.397L302.963 660.006ZM286.922 660.665C287.356 660.568 287.787 660.842 287.884 661.277C287.981 661.711 287.708 662.142 287.273 662.239L286.922 660.665ZM272.303 667.295C271.902 667.489 271.42 667.321 271.225 666.92C271.031 666.519 271.199 666.037 271.6 665.843L272.303 667.295ZM258.445 675.284C258.75 674.958 259.26 674.941 259.585 675.246C259.91 675.55 259.928 676.06 259.623 676.385L258.445 675.284ZM374.244 857.148L375.286 857.841L374.393 859.184L373.351 858.492L374.244 857.148ZM389.459 867.26L403.633 876.679L402.74 878.022L388.567 868.603L389.459 867.26ZM417.806 886.098L431.979 895.517L431.087 896.86L416.913 887.441L417.806 886.098ZM446.153 904.936L453.239 909.645L452.347 910.989L445.26 906.279L446.153 904.936ZM453.196 909.618C455.518 910.959 457.839 912.284 460.158 913.594L459.365 914.998C457.041 913.686 454.716 912.358 452.39 911.015L453.196 909.618ZM474.153 921.324C478.878 923.875 483.593 926.36 488.292 928.78L487.553 930.214C482.845 927.789 478.121 925.299 473.387 922.743L474.153 921.324ZM502.57 935.953C507.4 938.319 512.209 940.614 516.992 942.835L516.312 944.298C511.519 942.072 506.7 939.773 501.861 937.402L502.57 935.953ZM531.578 949.42C536.52 951.587 541.429 953.674 546.299 955.679L545.685 957.17C540.804 955.161 535.884 953.069 530.93 950.897L531.578 949.42ZM561.15 961.587C566.193 963.522 571.186 965.365 576.122 967.116L575.583 968.636C570.633 966.881 565.628 965.033 560.572 963.093L561.15 961.587ZM591.275 972.252C596.446 973.923 601.544 975.485 606.562 976.937L606.114 978.486C601.079 977.03 595.965 975.463 590.779 973.787L591.275 972.252ZM621.945 981.104C627.256 982.442 632.46 983.645 637.548 984.711L637.217 986.289C632.107 985.219 626.882 984.011 621.551 982.668L621.945 981.104ZM653.213 987.62C658.66 988.495 663.944 989.193 669.049 989.711L668.886 991.316C663.748 990.794 658.433 990.092 652.957 989.212L653.213 987.62ZM684.97 990.76C690.56 990.911 695.872 990.804 700.884 990.435L701.002 992.044C695.931 992.417 690.564 992.524 684.927 992.372L684.97 990.76ZM716.574 988.201C722.136 986.96 727.142 985.277 731.544 983.146L732.247 984.598C727.715 986.792 722.587 988.512 716.925 989.776L716.574 988.201ZM744.224 974.055C746.016 972.138 747.569 970.053 748.872 967.796L750.269 968.603C748.903 970.968 747.276 973.152 745.402 975.157L744.224 974.055ZM748.872 967.796C750.175 965.54 751.205 963.152 751.969 960.641L753.512 961.11C752.713 963.736 751.635 966.237 750.269 968.603L748.872 967.796ZM753.502 945.115C753.146 940.237 752.101 935.06 750.395 929.623L751.934 929.14C753.67 934.675 754.744 939.975 755.11 944.998L753.502 945.115ZM744.484 914.918C742.297 910.393 739.734 905.739 736.809 900.974L738.183 900.13C741.133 904.935 743.723 909.637 745.936 914.216L744.484 914.918ZM727.94 887.71C724.938 883.548 721.692 879.321 718.211 875.041L719.462 874.023C722.961 878.326 726.227 882.577 729.248 886.767L727.94 887.71ZM707.858 862.929C704.391 859.056 700.747 855.151 696.933 851.22L698.091 850.097C701.919 854.042 705.578 857.964 709.06 861.853L707.858 862.929ZM685.633 839.982C681.867 836.362 677.965 832.727 673.932 829.085L675.014 827.888C679.058 831.541 682.973 835.187 686.751 838.819L685.633 839.982ZM661.908 818.531C657.924 815.131 653.831 811.728 649.634 808.329L650.649 807.076C654.857 810.483 658.96 813.895 662.955 817.304L661.908 818.531ZM637.092 798.422C632.92 795.207 628.659 791.998 624.311 788.801L625.266 787.502C629.624 790.706 633.895 793.922 638.076 797.144L637.092 798.422ZM611.315 779.462C607 776.431 602.608 773.414 598.145 770.414L599.044 769.075C603.517 772.081 607.918 775.105 612.242 778.143L611.315 779.462ZM584.793 761.635C580.348 758.775 575.838 755.936 571.266 753.119L572.112 751.746C576.693 754.568 581.212 757.413 585.666 760.279L584.793 761.635ZM557.574 744.863C555.281 743.51 552.973 742.163 550.651 740.822L551.457 739.425C553.784 740.768 556.096 742.118 558.394 743.474L557.574 744.863ZM550.651 740.822C548.329 739.482 546.008 738.157 543.689 736.847L544.483 735.442C546.806 736.755 549.131 738.082 551.457 739.425L550.651 740.822ZM529.694 729.117C524.969 726.566 520.254 724.08 515.555 721.661L516.294 720.227C521.002 722.651 525.726 725.142 530.46 727.698L529.694 729.117ZM501.277 714.487C496.447 712.121 491.638 709.827 486.856 707.606L487.535 706.143C492.328 708.369 497.147 710.668 501.986 713.039L501.277 714.487ZM472.27 701.02C467.327 698.853 462.418 696.767 457.548 694.762L458.162 693.271C463.043 695.28 467.964 697.371 472.917 699.543L472.27 701.02ZM442.697 688.854C437.654 686.919 432.661 685.075 427.725 683.325L428.264 681.805C433.214 683.56 438.22 685.408 443.275 687.348L442.697 688.854ZM412.573 678.189C407.402 676.517 402.303 674.955 397.285 673.504L397.733 671.954C402.768 673.411 407.882 674.978 413.069 676.654L412.573 678.189ZM381.902 669.337C376.591 667.999 371.387 666.796 366.299 665.73L366.63 664.151C371.74 665.222 376.965 666.43 382.296 667.773L381.902 669.337ZM350.634 662.821C345.187 661.946 339.903 661.248 334.798 660.729L334.961 659.125C340.1 659.647 345.414 660.349 350.89 661.228L350.634 662.821ZM318.877 659.681C313.288 659.53 307.975 659.637 302.963 660.006L302.845 658.397C307.917 658.024 313.284 657.916 318.92 658.068L318.877 659.681ZM287.273 662.239C281.711 663.48 276.705 665.164 272.303 667.295L271.6 665.843C276.132 663.649 281.26 661.928 286.922 660.665L287.273 662.239ZM259.623 676.385C257.831 678.302 256.278 680.388 254.975 682.644L253.578 681.838C254.944 679.472 256.571 677.288 258.445 675.284L259.623 676.385ZM452.793 910.317L452.39 911.015L452.368 911.003L452.347 910.989L452.793 910.317ZM254.975 682.644C254.752 683.03 254.259 683.162 253.873 682.94C253.488 682.717 253.355 682.224 253.578 681.838L254.975 682.644ZM367.753 853.803L377.046 854.388L371.892 862.144L367.753 853.803ZM375.286 857.841C375.657 858.087 375.758 858.588 375.511 858.959C375.265 859.33 374.764 859.43 374.393 859.184L375.286 857.841ZM388.567 868.603C388.196 868.356 388.095 867.856 388.341 867.485C388.588 867.114 389.088 867.013 389.459 867.26L388.567 868.603ZM403.633 876.679C404.004 876.925 404.104 877.426 403.858 877.797C403.611 878.168 403.111 878.268 402.74 878.022L403.633 876.679ZM416.913 887.441C416.542 887.194 416.441 886.694 416.688 886.323C416.934 885.952 417.435 885.851 417.806 886.098L416.913 887.441ZM431.979 895.517C432.35 895.763 432.451 896.264 432.205 896.635C431.958 897.006 431.458 897.107 431.087 896.86L431.979 895.517ZM445.26 906.279C444.889 906.033 444.788 905.532 445.035 905.161C445.281 904.79 445.782 904.689 446.153 904.936L445.26 906.279ZM460.158 913.594C460.546 913.813 460.682 914.305 460.463 914.693C460.244 915.081 459.752 915.217 459.365 914.998L460.158 913.594ZM473.387 922.743C472.995 922.531 472.849 922.042 473.06 921.65C473.272 921.258 473.761 921.112 474.153 921.324L473.387 922.743ZM488.292 928.78C488.688 928.984 488.844 929.47 488.64 929.866C488.436 930.262 487.949 930.418 487.553 930.214L488.292 928.78ZM501.861 937.402C501.461 937.206 501.295 936.723 501.491 936.323C501.687 935.923 502.17 935.758 502.57 935.953L501.861 937.402ZM516.992 942.835C517.395 943.022 517.571 943.502 517.383 943.906C517.196 944.31 516.716 944.485 516.312 944.298L516.992 942.835ZM530.93 950.897C530.522 950.719 530.336 950.243 530.515 949.835C530.694 949.427 531.17 949.241 531.578 949.42L530.93 950.897ZM546.299 955.679C546.711 955.848 546.908 956.32 546.738 956.731C546.568 957.143 546.097 957.34 545.685 957.17L546.299 955.679ZM560.572 963.093C560.157 962.933 559.949 962.466 560.109 962.051C560.268 961.635 560.735 961.427 561.15 961.587L560.572 963.093ZM576.122 967.116C576.542 967.264 576.762 967.725 576.613 968.145C576.464 968.565 576.003 968.785 575.583 968.636L576.122 967.116ZM590.779 973.787C590.355 973.65 590.122 973.195 590.259 972.772C590.396 972.348 590.851 972.115 591.275 972.252L590.779 973.787ZM606.562 976.937C606.99 977.061 607.237 977.508 607.113 977.936C606.989 978.363 606.542 978.61 606.114 978.486L606.562 976.937ZM621.551 982.668C621.119 982.559 620.857 982.121 620.966 981.689C621.075 981.257 621.513 980.995 621.945 981.104L621.551 982.668ZM637.548 984.711C637.984 984.802 638.263 985.229 638.172 985.665C638.08 986.101 637.653 986.381 637.217 986.289L637.548 984.711ZM652.957 989.212C652.518 989.142 652.218 988.728 652.289 988.288C652.36 987.849 652.773 987.549 653.213 987.62L652.957 989.212ZM669.049 989.711C669.492 989.756 669.815 990.152 669.77 990.595C669.725 991.038 669.33 991.361 668.886 991.316L669.049 989.711ZM684.927 992.372C684.482 992.36 684.131 991.99 684.143 991.544C684.155 991.099 684.525 990.748 684.97 990.76L684.927 992.372ZM700.884 990.435C701.328 990.402 701.715 990.736 701.747 991.18C701.78 991.624 701.446 992.011 701.002 992.044L700.884 990.435ZM716.925 989.776C716.491 989.873 716.06 989.599 715.963 989.164C715.866 988.729 716.139 988.298 716.574 988.201L716.925 989.776ZM731.544 983.146C731.945 982.952 732.428 983.12 732.622 983.521C732.816 983.922 732.648 984.404 732.247 984.598L731.544 983.146ZM745.402 975.157C745.098 975.482 744.587 975.499 744.262 975.195C743.937 974.891 743.92 974.381 744.224 974.055L745.402 975.157ZM751.969 960.641C752.098 960.215 752.549 959.975 752.975 960.104C753.401 960.234 753.641 960.684 753.512 961.11L751.969 960.641ZM755.11 944.998C755.143 945.442 754.809 945.828 754.365 945.861C753.921 945.893 753.534 945.559 753.502 945.115L755.11 944.998ZM750.395 929.623C750.261 929.198 750.498 928.745 750.923 928.612C751.348 928.478 751.8 928.715 751.934 929.14L750.395 929.623ZM745.936 914.216C746.13 914.617 745.962 915.099 745.561 915.293C745.16 915.487 744.678 915.319 744.484 914.918L745.936 914.216ZM736.809 900.974C736.576 900.594 736.694 900.098 737.074 899.865C737.453 899.632 737.95 899.75 738.183 900.13L736.809 900.974ZM729.248 886.767C729.509 887.128 729.427 887.632 729.066 887.892C728.704 888.153 728.2 888.071 727.94 887.71L729.248 886.767ZM718.211 875.041C717.929 874.696 717.982 874.188 718.327 873.907C718.673 873.626 719.181 873.678 719.462 874.023L718.211 875.041ZM709.06 861.853C709.357 862.185 709.329 862.695 708.997 862.992C708.665 863.289 708.155 863.261 707.858 862.929L709.06 861.853ZM696.933 851.22C696.623 850.901 696.631 850.39 696.95 850.08C697.27 849.77 697.781 849.777 698.091 850.097L696.933 851.22ZM686.751 838.819C687.072 839.128 687.082 839.638 686.774 839.959C686.465 840.281 685.954 840.291 685.633 839.982L686.751 838.819ZM673.932 829.085C673.602 828.786 673.576 828.276 673.875 827.946C674.173 827.615 674.683 827.589 675.014 827.888L673.932 829.085ZM662.955 817.304C663.294 817.593 663.334 818.102 663.045 818.441C662.756 818.78 662.247 818.82 661.908 818.531L662.955 817.304ZM649.634 808.329C649.288 808.049 649.234 807.541 649.515 807.195C649.795 806.849 650.303 806.795 650.649 807.076L649.634 808.329ZM638.076 797.144C638.429 797.416 638.495 797.922 638.223 798.275C637.951 798.628 637.444 798.694 637.092 798.422L638.076 797.144ZM624.311 788.801C623.952 788.538 623.875 788.033 624.139 787.674C624.403 787.315 624.907 787.238 625.266 787.502L624.311 788.801ZM612.242 778.143C612.606 778.399 612.694 778.902 612.438 779.266C612.182 779.63 611.679 779.718 611.315 779.462L612.242 778.143ZM598.145 770.414C597.775 770.165 597.677 769.664 597.925 769.295C598.174 768.925 598.675 768.827 599.044 769.075L598.145 770.414ZM585.666 760.279C586.04 760.52 586.149 761.019 585.908 761.393C585.667 761.768 585.168 761.876 584.793 761.635L585.666 760.279ZM571.266 753.119C570.887 752.885 570.769 752.388 571.002 752.009C571.236 751.63 571.733 751.512 572.112 751.746L571.266 753.119ZM558.394 743.474C558.778 743.701 558.905 744.195 558.679 744.579C558.453 744.962 557.958 745.09 557.574 744.863L558.394 743.474ZM543.689 736.847C543.302 736.628 543.165 736.136 543.384 735.748C543.603 735.36 544.095 735.223 544.483 735.442L543.689 736.847ZM530.46 727.698C530.852 727.91 530.998 728.399 530.787 728.791C530.575 729.183 530.086 729.329 529.694 729.117L530.46 727.698ZM515.555 721.661C515.159 721.457 515.004 720.97 515.208 720.575C515.411 720.179 515.898 720.023 516.294 720.227L515.555 721.661ZM501.986 713.039C502.386 713.235 502.552 713.718 502.356 714.118C502.16 714.518 501.677 714.683 501.277 714.487L501.986 713.039ZM486.856 707.606C486.452 707.418 486.276 706.939 486.464 706.535C486.652 706.131 487.131 705.955 487.535 706.143L486.856 707.606ZM472.917 699.543C473.325 699.722 473.511 700.198 473.332 700.606C473.153 701.014 472.678 701.199 472.27 701.02L472.917 699.543ZM457.548 694.762C457.136 694.592 456.94 694.121 457.109 693.709C457.279 693.297 457.75 693.101 458.162 693.271L457.548 694.762ZM443.275 687.348C443.69 687.508 443.898 687.974 443.739 688.39C443.579 688.806 443.113 689.014 442.697 688.854L443.275 687.348ZM427.725 683.325C427.305 683.176 427.085 682.715 427.234 682.296C427.383 681.876 427.844 681.656 428.264 681.805L427.725 683.325ZM413.069 676.654C413.492 676.791 413.725 677.245 413.588 677.669C413.451 678.093 412.996 678.325 412.573 678.189L413.069 676.654ZM397.285 673.504C396.857 673.38 396.61 672.933 396.734 672.505C396.858 672.077 397.305 671.831 397.733 671.954L397.285 673.504ZM382.296 667.773C382.728 667.882 382.99 668.32 382.881 668.752C382.772 669.184 382.334 669.446 381.902 669.337L382.296 667.773ZM366.299 665.73C365.863 665.639 365.584 665.211 365.675 664.775C365.767 664.339 366.194 664.06 366.63 664.151L366.299 665.73ZM350.89 661.228C351.33 661.299 351.629 661.713 351.558 662.152C351.488 662.592 351.074 662.891 350.634 662.821L350.89 661.228ZM334.798 660.729C334.355 660.684 334.032 660.289 334.077 659.846C334.122 659.403 334.518 659.08 334.961 659.125L334.798 660.729ZM318.92 658.068C319.365 658.08 319.717 658.451 319.705 658.896C319.693 659.342 319.322 659.693 318.877 659.681L318.92 658.068ZM302.963 660.006C302.519 660.038 302.132 659.705 302.1 659.261C302.067 658.816 302.401 658.43 302.845 658.397L302.963 660.006ZM286.922 660.665C287.356 660.568 287.787 660.842 287.884 661.277C287.981 661.711 287.708 662.142 287.273 662.239L286.922 660.665ZM272.303 667.295C271.902 667.489 271.42 667.321 271.225 666.92C271.031 666.519 271.199 666.037 271.6 665.843L272.303 667.295ZM258.445 675.284C258.75 674.958 259.26 674.941 259.585 675.246C259.91 675.55 259.928 676.06 259.623 676.385L258.445 675.284ZM374.244 857.148L375.286 857.841L374.393 859.184L373.351 858.492L374.244 857.148ZM389.459 867.26L403.633 876.679L402.74 878.022L388.567 868.603L389.459 867.26ZM417.806 886.098L431.979 895.517L431.087 896.86L416.913 887.441L417.806 886.098ZM446.153 904.936L453.239 909.645L452.347 910.989L445.26 906.279L446.153 904.936ZM453.196 909.618C455.518 910.959 457.839 912.284 460.158 913.594L459.365 914.998C457.041 913.686 454.716 912.358 452.39 911.015L453.196 909.618ZM474.153 921.324C478.878 923.875 483.593 926.36 488.292 928.78L487.553 930.214C482.845 927.789 478.121 925.299 473.387 922.743L474.153 921.324ZM502.57 935.953C507.4 938.319 512.209 940.614 516.992 942.835L516.312 944.298C511.519 942.072 506.7 939.773 501.861 937.402L502.57 935.953ZM531.578 949.42C536.52 951.587 541.429 953.674 546.299 955.679L545.685 957.17C540.804 955.161 535.884 953.069 530.93 950.897L531.578 949.42ZM561.15 961.587C566.193 963.522 571.186 965.365 576.122 967.116L575.583 968.636C570.633 966.881 565.628 965.033 560.572 963.093L561.15 961.587ZM591.275 972.252C596.446 973.923 601.544 975.485 606.562 976.937L606.114 978.486C601.079 977.03 595.965 975.463 590.779 973.787L591.275 972.252ZM621.945 981.104C627.256 982.442 632.46 983.645 637.548 984.711L637.217 986.289C632.107 985.219 626.882 984.011 621.551 982.668L621.945 981.104ZM653.213 987.62C658.66 988.495 663.944 989.193 669.049 989.711L668.886 991.316C663.748 990.794 658.433 990.092 652.957 989.212L653.213 987.62ZM684.97 990.76C690.56 990.911 695.872 990.804 700.884 990.435L701.002 992.044C695.931 992.417 690.564 992.524 684.927 992.372L684.97 990.76ZM716.574 988.201C722.136 986.96 727.142 985.277 731.544 983.146L732.247 984.598C727.715 986.792 722.587 988.512 716.925 989.776L716.574 988.201ZM744.224 974.055C746.016 972.138 747.569 970.053 748.872 967.796L750.269 968.603C748.903 970.968 747.276 973.152 745.402 975.157L744.224 974.055ZM748.872 967.796C750.175 965.54 751.205 963.152 751.969 960.641L753.512 961.11C752.713 963.736 751.635 966.237 750.269 968.603L748.872 967.796ZM753.502 945.115C753.146 940.237 752.101 935.06 750.395 929.623L751.934 929.14C753.67 934.675 754.744 939.975 755.11 944.998L753.502 945.115ZM744.484 914.918C742.297 910.393 739.734 905.739 736.809 900.974L738.183 900.13C741.133 904.935 743.723 909.637 745.936 914.216L744.484 914.918ZM727.94 887.71C724.938 883.548 721.692 879.321 718.211 875.041L719.462 874.023C722.961 878.326 726.227 882.577 729.248 886.767L727.94 887.71ZM707.858 862.929C704.391 859.056 700.747 855.151 696.933 851.22L698.091 850.097C701.919 854.042 705.578 857.964 709.06 861.853L707.858 862.929ZM685.633 839.982C681.867 836.362 677.965 832.727 673.932 829.085L675.014 827.888C679.058 831.541 682.973 835.187 686.751 838.819L685.633 839.982ZM661.908 818.531C657.924 815.131 653.831 811.728 649.634 808.329L650.649 807.076C654.857 810.483 658.96 813.895 662.955 817.304L661.908 818.531ZM637.092 798.422C632.92 795.207 628.659 791.998 624.311 788.801L625.266 787.502C629.624 790.706 633.895 793.922 638.076 797.144L637.092 798.422ZM611.315 779.462C607 776.431 602.608 773.414 598.145 770.414L599.044 769.075C603.517 772.081 607.918 775.105 612.242 778.143L611.315 779.462ZM584.793 761.635C580.348 758.775 575.838 755.936 571.266 753.119L572.112 751.746C576.693 754.568 581.212 757.413 585.666 760.279L584.793 761.635ZM557.574 744.863C555.281 743.51 552.973 742.163 550.651 740.822L551.457 739.425C553.784 740.768 556.096 742.118 558.394 743.474L557.574 744.863ZM550.651 740.822C548.329 739.482 546.008 738.157 543.689 736.847L544.483 735.442C546.806 736.755 549.131 738.082 551.457 739.425L550.651 740.822ZM529.694 729.117C524.969 726.566 520.254 724.08 515.555 721.661L516.294 720.227C521.002 722.651 525.726 725.142 530.46 727.698L529.694 729.117ZM501.277 714.487C496.447 712.121 491.638 709.827 486.856 707.606L487.535 706.143C492.328 708.369 497.147 710.668 501.986 713.039L501.277 714.487ZM472.27 701.02C467.327 698.853 462.418 696.767 457.548 694.762L458.162 693.271C463.043 695.28 467.964 697.371 472.917 699.543L472.27 701.02ZM442.697 688.854C437.654 686.919 432.661 685.075 427.725 683.325L428.264 681.805C433.214 683.56 438.22 685.408 443.275 687.348L442.697 688.854ZM412.573 678.189C407.402 676.517 402.303 674.955 397.285 673.504L397.733 671.954C402.768 673.411 407.882 674.978 413.069 676.654L412.573 678.189ZM381.902 669.337C376.591 667.999 371.387 666.796 366.299 665.73L366.63 664.151C371.74 665.222 376.965 666.43 382.296 667.773L381.902 669.337ZM350.634 662.821C345.187 661.946 339.903 661.248 334.798 660.729L334.961 659.125C340.1 659.647 345.414 660.349 350.89 661.228L350.634 662.821ZM318.877 659.681C313.288 659.53 307.975 659.637 302.963 660.006L302.845 658.397C307.917 658.024 313.284 657.916 318.92 658.068L318.877 659.681ZM287.273 662.239C281.711 663.48 276.705 665.164 272.303 667.295L271.6 665.843C276.132 663.649 281.26 661.928 286.922 660.665L287.273 662.239ZM259.623 676.385C257.831 678.302 256.278 680.388 254.975 682.644L253.578 681.838C254.944 679.472 256.571 677.288 258.445 675.284L259.623 676.385Z" fill="white" fill-opacity="0.8" />
    <path d="M614.084 630.957L613.681 631.655L613.659 631.642L613.638 631.628L614.084 630.957ZM416.266 403.284C416.043 403.67 415.55 403.802 415.164 403.579C414.779 403.357 414.646 402.864 414.869 402.478L416.266 403.284ZM529.044 574.443L538.337 575.028L533.183 582.784L529.044 574.443ZM536.577 578.48C536.948 578.727 537.049 579.227 536.802 579.598C536.556 579.969 536.055 580.07 535.684 579.824L536.577 578.48ZM549.858 589.243C549.487 588.996 549.386 588.496 549.632 588.125C549.879 587.754 550.379 587.653 550.75 587.899L549.858 589.243ZM564.924 597.318C565.295 597.565 565.395 598.065 565.149 598.436C564.902 598.807 564.402 598.908 564.031 598.662L564.924 597.318ZM578.204 608.081C577.833 607.834 577.732 607.334 577.979 606.963C578.226 606.592 578.726 606.491 579.097 606.737L578.204 608.081ZM593.27 616.156C593.641 616.403 593.742 616.904 593.496 617.274C593.249 617.645 592.749 617.746 592.378 617.5L593.27 616.156ZM606.551 626.919C606.18 626.672 606.079 626.172 606.326 625.801C606.572 625.43 607.073 625.329 607.444 625.575L606.551 626.919ZM621.449 634.234C621.837 634.453 621.973 634.945 621.754 635.333C621.535 635.72 621.043 635.857 620.656 635.638L621.449 634.234ZM634.678 643.383C634.286 643.171 634.14 642.682 634.351 642.29C634.563 641.898 635.052 641.752 635.444 641.963L634.678 643.383ZM649.583 649.42C649.979 649.624 650.135 650.11 649.931 650.506C649.727 650.902 649.24 651.058 648.844 650.854L649.583 649.42ZM663.152 658.042C662.752 657.846 662.586 657.363 662.782 656.963C662.978 656.563 663.461 656.397 663.861 656.593L663.152 658.042ZM678.283 663.475C678.687 663.662 678.862 664.142 678.674 664.546C678.487 664.95 678.007 665.125 677.603 664.937L678.283 663.475ZM692.221 671.537C691.813 671.358 691.627 670.883 691.806 670.475C691.985 670.067 692.461 669.881 692.869 670.06L692.221 671.537ZM707.59 676.318C708.002 676.488 708.199 676.959 708.029 677.371C707.859 677.783 707.388 677.979 706.976 677.81L707.59 676.318ZM721.864 683.732C721.448 683.573 721.24 683.106 721.4 682.69C721.559 682.275 722.026 682.067 722.441 682.227L721.864 683.732ZM737.413 687.755C737.833 687.904 738.053 688.365 737.904 688.785C737.755 689.205 737.294 689.424 736.874 689.275L737.413 687.755ZM752.07 694.427C751.646 694.29 751.413 693.835 751.55 693.411C751.687 692.988 752.142 692.755 752.566 692.892L752.07 694.427ZM767.853 697.577C768.281 697.7 768.528 698.148 768.404 698.575C768.28 699.003 767.833 699.25 767.405 699.126L767.853 697.577ZM782.842 703.308C782.41 703.199 782.148 702.76 782.257 702.329C782.366 701.897 782.804 701.635 783.236 701.743L782.842 703.308ZM798.839 705.35C799.275 705.442 799.554 705.869 799.463 706.305C799.371 706.741 798.944 707.02 798.508 706.929L798.839 705.35ZM814.248 709.852C813.809 709.782 813.509 709.368 813.58 708.928C813.651 708.488 814.064 708.189 814.504 708.26L814.248 709.852ZM830.34 710.351C830.784 710.396 831.106 710.792 831.061 711.235C831.016 711.678 830.621 712.001 830.177 711.956L830.34 710.351ZM846.218 713.012C845.773 713 845.422 712.629 845.434 712.184C845.446 711.739 845.816 711.388 846.261 711.4L846.218 713.012ZM862.175 711.075C862.619 711.042 863.006 711.376 863.038 711.82C863.071 712.264 862.737 712.651 862.293 712.683L862.175 711.075ZM878.216 710.415C877.782 710.512 877.351 710.239 877.254 709.804C877.157 709.369 877.43 708.938 877.865 708.841L878.216 710.415ZM892.835 703.786C893.236 703.592 893.719 703.76 893.913 704.16C894.107 704.561 893.939 705.044 893.538 705.238L892.835 703.786ZM906.693 695.797C906.389 696.122 905.878 696.139 905.553 695.835C905.228 695.531 905.211 695.02 905.515 694.695L906.693 695.797ZM913.26 681.281C913.389 680.855 913.84 680.614 914.266 680.744C914.692 680.874 914.932 681.324 914.803 681.75L913.26 681.281ZM916.401 665.637C916.434 666.082 916.1 666.468 915.656 666.5C915.212 666.533 914.825 666.199 914.793 665.755L916.401 665.637ZM911.686 650.262C911.552 649.837 911.789 649.385 912.214 649.251C912.639 649.118 913.091 649.355 913.225 649.779L911.686 650.262ZM907.227 634.856C907.421 635.257 907.253 635.739 906.852 635.933C906.451 636.126 905.969 635.958 905.775 635.557L907.227 634.856ZM898.1 621.614C897.867 621.234 897.985 620.737 898.365 620.504C898.744 620.271 899.241 620.39 899.474 620.77L898.1 621.614ZM890.539 607.406C890.8 607.768 890.718 608.272 890.357 608.532C889.995 608.793 889.491 608.711 889.231 608.35L890.539 607.406ZM879.502 595.681C879.22 595.335 879.273 594.827 879.618 594.546C879.964 594.265 880.472 594.318 880.753 594.663L879.502 595.681ZM870.351 582.493C870.648 582.825 870.62 583.335 870.288 583.632C869.956 583.929 869.446 583.901 869.149 583.569L870.351 582.493ZM858.224 571.86C857.914 571.54 857.922 571.03 858.241 570.72C858.561 570.409 859.072 570.417 859.382 570.737L858.224 571.86ZM848.042 559.459C848.363 559.768 848.373 560.278 848.065 560.599C847.756 560.92 847.245 560.93 846.924 560.622L848.042 559.459ZM835.223 549.724C834.893 549.426 834.867 548.916 835.166 548.585C835.464 548.255 835.974 548.229 836.305 548.528L835.223 549.724ZM824.246 537.944C824.585 538.233 824.625 538.742 824.336 539.081C824.047 539.419 823.538 539.46 823.199 539.171L824.246 537.944ZM810.925 528.969C810.579 528.689 810.525 528.181 810.806 527.835C811.086 527.488 811.594 527.435 811.94 527.715L810.925 528.969ZM799.367 517.784C799.72 518.056 799.786 518.562 799.514 518.915C799.242 519.268 798.735 519.333 798.383 519.061L799.367 517.784ZM785.602 509.441C785.243 509.177 785.166 508.673 785.43 508.314C785.694 507.955 786.198 507.878 786.557 508.142L785.602 509.441ZM773.533 498.782C773.897 499.038 773.985 499.541 773.729 499.906C773.473 500.27 772.97 500.358 772.606 500.102L773.533 498.782ZM759.436 491.054C759.066 490.805 758.968 490.304 759.216 489.935C759.465 489.565 759.966 489.467 760.335 489.715L759.436 491.054ZM746.957 480.918C747.331 481.159 747.44 481.658 747.199 482.033C746.958 482.408 746.459 482.516 746.084 482.275L746.957 480.918ZM732.557 473.759C732.178 473.525 732.06 473.028 732.293 472.649C732.527 472.27 733.024 472.152 733.403 472.385L732.557 473.759ZM719.685 464.114C720.069 464.34 720.196 464.835 719.97 465.218C719.744 465.602 719.249 465.729 718.865 465.503L719.685 464.114ZM704.98 457.487C704.593 457.267 704.456 456.776 704.675 456.388C704.894 456 705.386 455.863 705.774 456.082L704.98 457.487ZM691.751 448.338C692.143 448.549 692.289 449.039 692.078 449.43C691.866 449.822 691.377 449.969 690.985 449.757L691.751 448.338ZM676.846 442.3C676.45 442.097 676.295 441.61 676.499 441.214C676.702 440.818 677.189 440.663 677.585 440.867L676.846 442.3ZM663.277 433.679C663.677 433.875 663.843 434.358 663.647 434.758C663.451 435.158 662.968 435.323 662.568 435.127L663.277 433.679ZM648.147 428.246C647.743 428.058 647.567 427.578 647.755 427.175C647.943 426.771 648.422 426.595 648.826 426.783L648.147 428.246ZM634.208 420.183C634.616 420.362 634.802 420.838 634.623 421.245C634.444 421.653 633.969 421.839 633.561 421.66L634.208 420.183ZM618.839 415.402C618.427 415.232 618.231 414.761 618.4 414.349C618.57 413.937 619.041 413.741 619.453 413.91L618.839 415.402ZM604.566 407.988C604.981 408.148 605.189 408.614 605.03 409.03C604.87 409.446 604.404 409.653 603.988 409.494L604.566 407.988ZM589.016 403.965C588.596 403.816 588.376 403.355 588.525 402.935C588.674 402.516 589.135 402.296 589.555 402.445L589.016 403.965ZM574.36 397.294C574.783 397.43 575.016 397.885 574.879 398.309C574.742 398.733 574.287 398.965 573.864 398.828L574.36 397.294ZM558.576 394.144C558.148 394.02 557.901 393.573 558.025 393.145C558.149 392.717 558.596 392.47 559.024 392.594L558.576 394.144ZM543.587 388.413C544.019 388.522 544.281 388.96 544.172 389.392C544.063 389.824 543.625 390.086 543.193 389.977L543.587 388.413ZM527.59 386.37C527.154 386.279 526.875 385.851 526.966 385.415C527.058 384.979 527.485 384.7 527.921 384.791L527.59 386.37ZM512.181 381.868C512.621 381.939 512.92 382.352 512.849 382.792C512.779 383.232 512.365 383.531 511.925 383.461L512.181 381.868ZM496.089 381.369C495.646 381.324 495.323 380.929 495.368 380.485C495.413 380.042 495.809 379.72 496.252 379.765L496.089 381.369ZM480.211 378.708C480.656 378.72 481.008 379.091 480.996 379.536C480.984 379.981 480.613 380.333 480.168 380.321L480.211 378.708ZM464.254 380.645C463.81 380.678 463.424 380.345 463.391 379.9C463.358 379.456 463.692 379.07 464.136 379.037L464.254 380.645ZM448.213 381.305C448.647 381.208 449.078 381.482 449.175 381.916C449.272 382.351 448.999 382.782 448.564 382.879L448.213 381.305ZM433.594 387.934C433.193 388.128 432.711 387.961 432.516 387.56C432.322 387.159 432.49 386.677 432.891 386.483L433.594 387.934ZM419.736 395.924C420.041 395.598 420.551 395.581 420.876 395.885C421.201 396.19 421.219 396.7 420.914 397.025L419.736 395.924ZM535.535 577.788L536.577 578.48L535.684 579.824L534.642 579.131L535.535 577.788ZM550.75 587.899L564.924 597.318L564.031 598.662L549.858 589.243L550.75 587.899ZM579.097 606.737L593.27 616.156L592.378 617.5L578.204 608.081L579.097 606.737ZM607.444 625.575L614.53 630.285L613.638 631.628L606.551 626.919L607.444 625.575ZM614.487 630.258C616.809 631.599 619.13 632.924 621.449 634.234L620.656 635.638C618.332 634.326 616.007 632.998 613.681 631.655L614.487 630.258ZM635.444 641.963C640.169 644.514 644.884 647 649.583 649.42L648.844 650.854C644.136 648.429 639.412 645.939 634.678 643.383L635.444 641.963ZM663.861 656.593C668.691 658.959 673.5 661.253 678.283 663.475L677.603 664.937C672.81 662.711 667.992 660.412 663.152 658.042L663.861 656.593ZM692.869 670.06C697.811 672.227 702.72 674.314 707.59 676.318L706.976 677.81C702.095 675.8 697.175 673.709 692.221 671.537L692.869 670.06ZM722.441 682.227C727.484 684.162 732.477 686.005 737.413 687.755L736.874 689.275C731.924 687.521 726.919 685.672 721.864 683.732L722.441 682.227ZM752.566 692.892C757.737 694.563 762.835 696.125 767.853 697.577L767.405 699.126C762.37 697.67 757.256 696.103 752.07 694.427L752.566 692.892ZM783.236 701.743C788.547 703.081 793.751 704.284 798.839 705.35L798.508 706.929C793.398 705.858 788.173 704.65 782.842 703.308L783.236 701.743ZM814.504 708.26C819.951 709.135 825.235 709.833 830.34 710.351L830.177 711.956C825.039 711.434 819.724 710.732 814.248 709.852L814.504 708.26ZM846.261 711.4C851.851 711.551 857.163 711.444 862.175 711.075L862.293 712.683C857.222 713.057 851.855 713.164 846.218 713.012L846.261 711.4ZM877.865 708.841C883.427 707.6 888.433 705.917 892.835 703.786L893.538 705.238C889.006 707.432 883.878 709.152 878.216 710.415L877.865 708.841ZM905.515 694.695C907.307 692.778 908.86 690.693 910.163 688.436L911.56 689.242C910.194 691.608 908.567 693.792 906.693 695.797L905.515 694.695ZM910.163 688.436C911.466 686.179 912.496 683.792 913.26 681.281L914.803 681.75C914.004 684.376 912.926 686.877 911.56 689.242L910.163 688.436ZM914.793 665.755C914.437 660.877 913.392 655.7 911.686 650.262L913.225 649.779C914.961 655.315 916.035 660.615 916.401 665.637L914.793 665.755ZM905.775 635.557C903.588 631.033 901.025 626.378 898.1 621.614L899.474 620.77C902.424 625.575 905.014 630.277 907.227 634.856L905.775 635.557ZM889.231 608.35C886.229 604.188 882.983 599.961 879.502 595.681L880.753 594.663C884.252 598.965 887.518 603.217 890.539 607.406L889.231 608.35ZM869.149 583.569C865.682 579.696 862.038 575.791 858.224 571.86L859.382 570.737C863.21 574.682 866.869 578.604 870.351 582.493L869.149 583.569ZM846.924 560.622C843.158 557.002 839.256 553.367 835.223 549.724L836.305 548.528C840.349 552.181 844.264 555.827 848.042 559.459L846.924 560.622ZM823.199 539.171C819.215 535.77 815.122 532.368 810.925 528.969L811.94 527.715C816.148 531.123 820.251 534.534 824.246 537.944L823.199 539.171ZM798.383 519.061C794.211 515.846 789.95 512.638 785.602 509.441L786.557 508.142C790.915 511.346 795.186 514.561 799.367 517.784L798.383 519.061ZM772.606 500.102C768.291 497.071 763.9 494.053 759.436 491.054L760.335 489.715C764.808 492.721 769.209 495.745 773.533 498.782L772.606 500.102ZM746.084 482.275C741.639 479.415 737.129 476.575 732.557 473.759L733.403 472.385C737.984 475.208 742.503 478.053 746.957 480.918L746.084 482.275ZM718.865 465.503C716.572 464.15 714.264 462.802 711.942 461.462L712.748 460.065C715.075 461.408 717.387 462.758 719.685 464.114L718.865 465.503ZM711.942 461.462C709.62 460.121 707.299 458.796 704.98 457.487L705.774 456.082C708.097 457.394 710.422 458.722 712.748 460.065L711.942 461.462ZM690.985 449.757C686.26 447.206 681.545 444.72 676.846 442.3L677.585 440.867C682.293 443.291 687.017 445.782 691.751 448.338L690.985 449.757ZM662.568 435.127C657.738 432.761 652.929 430.467 648.147 428.246L648.826 426.783C653.619 429.009 658.438 431.308 663.277 433.679L662.568 435.127ZM633.561 421.66C628.618 419.493 623.709 417.407 618.839 415.402L619.453 413.91C624.334 415.92 629.255 418.011 634.208 420.183L633.561 421.66ZM603.988 409.494C598.945 407.558 593.953 405.715 589.016 403.965L589.555 402.445C594.505 404.2 599.511 406.048 604.566 407.988L603.988 409.494ZM573.864 398.828C568.693 397.157 563.594 395.595 558.576 394.144L559.024 392.594C564.059 394.051 569.173 395.617 574.36 397.294L573.864 398.828ZM543.193 389.977C537.882 388.639 532.678 387.436 527.59 386.37L527.921 384.791C533.031 385.862 538.256 387.07 543.587 388.413L543.193 389.977ZM511.925 383.461C506.478 382.586 501.194 381.888 496.089 381.369L496.252 379.765C501.391 380.286 506.705 380.989 512.181 381.868L511.925 383.461ZM480.168 380.321C474.579 380.17 469.266 380.277 464.254 380.645L464.136 379.037C469.208 378.664 474.575 378.556 480.211 378.708L480.168 380.321ZM448.564 382.879C443.002 384.12 437.996 385.804 433.594 387.934L432.891 386.483C437.423 384.289 442.551 382.568 448.213 381.305L448.564 382.879ZM420.914 397.025C419.122 398.942 417.569 401.028 416.266 403.284L414.869 402.478C416.235 400.112 417.862 397.928 419.736 395.924L420.914 397.025ZM614.084 630.957L613.681 631.655L613.659 631.642L613.638 631.628L614.084 630.957ZM416.266 403.284C416.043 403.67 415.55 403.802 415.164 403.579C414.779 403.357 414.646 402.864 414.869 402.478L416.266 403.284ZM529.044 574.443L538.337 575.028L533.183 582.784L529.044 574.443ZM536.577 578.48C536.948 578.727 537.049 579.227 536.802 579.598C536.556 579.969 536.055 580.07 535.684 579.824L536.577 578.48ZM549.858 589.243C549.487 588.996 549.386 588.496 549.632 588.125C549.879 587.754 550.379 587.653 550.75 587.899L549.858 589.243ZM564.924 597.318C565.295 597.565 565.395 598.065 565.149 598.436C564.902 598.807 564.402 598.908 564.031 598.662L564.924 597.318ZM578.204 608.081C577.833 607.834 577.732 607.334 577.979 606.963C578.226 606.592 578.726 606.491 579.097 606.737L578.204 608.081ZM593.27 616.156C593.641 616.403 593.742 616.904 593.496 617.274C593.249 617.645 592.749 617.746 592.378 617.5L593.27 616.156ZM606.551 626.919C606.18 626.672 606.079 626.172 606.326 625.801C606.572 625.43 607.073 625.329 607.444 625.575L606.551 626.919ZM621.449 634.234C621.837 634.453 621.973 634.945 621.754 635.333C621.535 635.72 621.043 635.857 620.656 635.638L621.449 634.234ZM634.678 643.383C634.286 643.171 634.14 642.682 634.351 642.29C634.563 641.898 635.052 641.752 635.444 641.963L634.678 643.383ZM649.583 649.42C649.979 649.624 650.135 650.11 649.931 650.506C649.727 650.902 649.24 651.058 648.844 650.854L649.583 649.42ZM663.152 658.042C662.752 657.846 662.586 657.363 662.782 656.963C662.978 656.563 663.461 656.397 663.861 656.593L663.152 658.042ZM678.283 663.475C678.687 663.662 678.862 664.142 678.674 664.546C678.487 664.95 678.007 665.125 677.603 664.937L678.283 663.475ZM692.221 671.537C691.813 671.358 691.627 670.883 691.806 670.475C691.985 670.067 692.461 669.881 692.869 670.06L692.221 671.537ZM707.59 676.318C708.002 676.488 708.199 676.959 708.029 677.371C707.859 677.783 707.388 677.979 706.976 677.81L707.59 676.318ZM721.864 683.732C721.448 683.573 721.24 683.106 721.4 682.69C721.559 682.275 722.026 682.067 722.441 682.227L721.864 683.732ZM737.413 687.755C737.833 687.904 738.053 688.365 737.904 688.785C737.755 689.205 737.294 689.424 736.874 689.275L737.413 687.755ZM752.07 694.427C751.646 694.29 751.413 693.835 751.55 693.411C751.687 692.988 752.142 692.755 752.566 692.892L752.07 694.427ZM767.853 697.577C768.281 697.7 768.528 698.148 768.404 698.575C768.28 699.003 767.833 699.25 767.405 699.126L767.853 697.577ZM782.842 703.308C782.41 703.199 782.148 702.76 782.257 702.329C782.366 701.897 782.804 701.635 783.236 701.743L782.842 703.308ZM798.839 705.35C799.275 705.442 799.554 705.869 799.463 706.305C799.371 706.741 798.944 707.02 798.508 706.929L798.839 705.35ZM814.248 709.852C813.809 709.782 813.509 709.368 813.58 708.928C813.651 708.488 814.064 708.189 814.504 708.26L814.248 709.852ZM830.34 710.351C830.784 710.396 831.106 710.792 831.061 711.235C831.016 711.678 830.621 712.001 830.177 711.956L830.34 710.351ZM846.218 713.012C845.773 713 845.422 712.629 845.434 712.184C845.446 711.739 845.816 711.388 846.261 711.4L846.218 713.012ZM862.175 711.075C862.619 711.042 863.006 711.376 863.038 711.82C863.071 712.264 862.737 712.651 862.293 712.683L862.175 711.075ZM878.216 710.415C877.782 710.512 877.351 710.239 877.254 709.804C877.157 709.369 877.43 708.938 877.865 708.841L878.216 710.415ZM892.835 703.786C893.236 703.592 893.719 703.76 893.913 704.16C894.107 704.561 893.939 705.044 893.538 705.238L892.835 703.786ZM906.693 695.797C906.389 696.122 905.878 696.139 905.553 695.835C905.228 695.531 905.211 695.02 905.515 694.695L906.693 695.797ZM913.26 681.281C913.389 680.855 913.84 680.614 914.266 680.744C914.692 680.874 914.932 681.324 914.803 681.75L913.26 681.281ZM916.401 665.637C916.434 666.082 916.1 666.468 915.656 666.5C915.212 666.533 914.825 666.199 914.793 665.755L916.401 665.637ZM911.686 650.262C911.552 649.837 911.789 649.385 912.214 649.251C912.639 649.118 913.091 649.355 913.225 649.779L911.686 650.262ZM907.227 634.856C907.421 635.257 907.253 635.739 906.852 635.933C906.451 636.126 905.969 635.958 905.775 635.557L907.227 634.856ZM898.1 621.614C897.867 621.234 897.985 620.737 898.365 620.504C898.744 620.271 899.241 620.39 899.474 620.77L898.1 621.614ZM890.539 607.406C890.8 607.768 890.718 608.272 890.357 608.532C889.995 608.793 889.491 608.711 889.231 608.35L890.539 607.406ZM879.502 595.681C879.22 595.335 879.273 594.827 879.618 594.546C879.964 594.265 880.472 594.318 880.753 594.663L879.502 595.681ZM870.351 582.493C870.648 582.825 870.62 583.335 870.288 583.632C869.956 583.929 869.446 583.901 869.149 583.569L870.351 582.493ZM858.224 571.86C857.914 571.54 857.922 571.03 858.241 570.72C858.561 570.409 859.072 570.417 859.382 570.737L858.224 571.86ZM848.042 559.459C848.363 559.768 848.373 560.278 848.065 560.599C847.756 560.92 847.245 560.93 846.924 560.622L848.042 559.459ZM835.223 549.724C834.893 549.426 834.867 548.916 835.166 548.585C835.464 548.255 835.974 548.229 836.305 548.528L835.223 549.724ZM824.246 537.944C824.585 538.233 824.625 538.742 824.336 539.081C824.047 539.419 823.538 539.46 823.199 539.171L824.246 537.944ZM810.925 528.969C810.579 528.689 810.525 528.181 810.806 527.835C811.086 527.488 811.594 527.435 811.94 527.715L810.925 528.969ZM799.367 517.784C799.72 518.056 799.786 518.562 799.514 518.915C799.242 519.268 798.735 519.333 798.383 519.061L799.367 517.784ZM785.602 509.441C785.243 509.177 785.166 508.673 785.43 508.314C785.694 507.955 786.198 507.878 786.557 508.142L785.602 509.441ZM773.533 498.782C773.897 499.038 773.985 499.541 773.729 499.906C773.473 500.27 772.97 500.358 772.606 500.102L773.533 498.782ZM759.436 491.054C759.066 490.805 758.968 490.304 759.216 489.935C759.465 489.565 759.966 489.467 760.335 489.715L759.436 491.054ZM746.957 480.918C747.331 481.159 747.44 481.658 747.199 482.033C746.958 482.408 746.459 482.516 746.084 482.275L746.957 480.918ZM732.557 473.759C732.178 473.525 732.06 473.028 732.293 472.649C732.527 472.27 733.024 472.152 733.403 472.385L732.557 473.759ZM719.685 464.114C720.069 464.34 720.196 464.835 719.97 465.218C719.744 465.602 719.249 465.729 718.865 465.503L719.685 464.114ZM704.98 457.487C704.593 457.267 704.456 456.776 704.675 456.388C704.894 456 705.386 455.863 705.774 456.082L704.98 457.487ZM691.751 448.338C692.143 448.549 692.289 449.039 692.078 449.43C691.866 449.822 691.377 449.969 690.985 449.757L691.751 448.338ZM676.846 442.3C676.45 442.097 676.295 441.61 676.499 441.214C676.702 440.818 677.189 440.663 677.585 440.867L676.846 442.3ZM663.277 433.679C663.677 433.875 663.843 434.358 663.647 434.758C663.451 435.158 662.968 435.323 662.568 435.127L663.277 433.679ZM648.147 428.246C647.743 428.058 647.567 427.578 647.755 427.175C647.943 426.771 648.422 426.595 648.826 426.783L648.147 428.246ZM634.208 420.183C634.616 420.362 634.802 420.838 634.623 421.245C634.444 421.653 633.969 421.839 633.561 421.66L634.208 420.183ZM618.839 415.402C618.427 415.232 618.231 414.761 618.4 414.349C618.57 413.937 619.041 413.741 619.453 413.91L618.839 415.402ZM604.566 407.988C604.981 408.148 605.189 408.614 605.03 409.03C604.87 409.446 604.404 409.653 603.988 409.494L604.566 407.988ZM589.016 403.965C588.596 403.816 588.376 403.355 588.525 402.935C588.674 402.516 589.135 402.296 589.555 402.445L589.016 403.965ZM574.36 397.294C574.783 397.43 575.016 397.885 574.879 398.309C574.742 398.733 574.287 398.965 573.864 398.828L574.36 397.294ZM558.576 394.144C558.148 394.02 557.901 393.573 558.025 393.145C558.149 392.717 558.596 392.47 559.024 392.594L558.576 394.144ZM543.587 388.413C544.019 388.522 544.281 388.96 544.172 389.392C544.063 389.824 543.625 390.086 543.193 389.977L543.587 388.413ZM527.59 386.37C527.154 386.279 526.875 385.851 526.966 385.415C527.058 384.979 527.485 384.7 527.921 384.791L527.59 386.37ZM512.181 381.868C512.621 381.939 512.92 382.352 512.849 382.792C512.779 383.232 512.365 383.531 511.925 383.461L512.181 381.868ZM496.089 381.369C495.646 381.324 495.323 380.929 495.368 380.485C495.413 380.042 495.809 379.72 496.252 379.765L496.089 381.369ZM480.211 378.708C480.656 378.72 481.008 379.091 480.996 379.536C480.984 379.981 480.613 380.333 480.168 380.321L480.211 378.708ZM464.254 380.645C463.81 380.678 463.424 380.345 463.391 379.9C463.358 379.456 463.692 379.07 464.136 379.037L464.254 380.645ZM448.213 381.305C448.647 381.208 449.078 381.482 449.175 381.916C449.272 382.351 448.999 382.782 448.564 382.879L448.213 381.305ZM433.594 387.934C433.193 388.128 432.711 387.961 432.516 387.56C432.322 387.159 432.49 386.677 432.891 386.483L433.594 387.934ZM419.736 395.924C420.041 395.598 420.551 395.581 420.876 395.885C421.201 396.19 421.219 396.7 420.914 397.025L419.736 395.924ZM535.535 577.788L536.577 578.48L535.684 579.824L534.642 579.131L535.535 577.788ZM550.75 587.899L564.924 597.318L564.031 598.662L549.858 589.243L550.75 587.899ZM579.097 606.737L593.27 616.156L592.378 617.5L578.204 608.081L579.097 606.737ZM607.444 625.575L614.53 630.285L613.638 631.628L606.551 626.919L607.444 625.575ZM614.487 630.258C616.809 631.599 619.13 632.924 621.449 634.234L620.656 635.638C618.332 634.326 616.007 632.998 613.681 631.655L614.487 630.258ZM635.444 641.963C640.169 644.514 644.884 647 649.583 649.42L648.844 650.854C644.136 648.429 639.412 645.939 634.678 643.383L635.444 641.963ZM663.861 656.593C668.691 658.959 673.5 661.253 678.283 663.475L677.603 664.937C672.81 662.711 667.992 660.412 663.152 658.042L663.861 656.593ZM692.869 670.06C697.811 672.227 702.72 674.314 707.59 676.318L706.976 677.81C702.095 675.8 697.175 673.709 692.221 671.537L692.869 670.06ZM722.441 682.227C727.484 684.162 732.477 686.005 737.413 687.755L736.874 689.275C731.924 687.521 726.919 685.672 721.864 683.732L722.441 682.227ZM752.566 692.892C757.737 694.563 762.835 696.125 767.853 697.577L767.405 699.126C762.37 697.67 757.256 696.103 752.07 694.427L752.566 692.892ZM783.236 701.743C788.547 703.081 793.751 704.284 798.839 705.35L798.508 706.929C793.398 705.858 788.173 704.65 782.842 703.308L783.236 701.743ZM814.504 708.26C819.951 709.135 825.235 709.833 830.34 710.351L830.177 711.956C825.039 711.434 819.724 710.732 814.248 709.852L814.504 708.26ZM846.261 711.4C851.851 711.551 857.163 711.444 862.175 711.075L862.293 712.683C857.222 713.057 851.855 713.164 846.218 713.012L846.261 711.4ZM877.865 708.841C883.427 707.6 888.433 705.917 892.835 703.786L893.538 705.238C889.006 707.432 883.878 709.152 878.216 710.415L877.865 708.841ZM905.515 694.695C907.307 692.778 908.86 690.693 910.163 688.436L911.56 689.242C910.194 691.608 908.567 693.792 906.693 695.797L905.515 694.695ZM910.163 688.436C911.466 686.179 912.496 683.792 913.26 681.281L914.803 681.75C914.004 684.376 912.926 686.877 911.56 689.242L910.163 688.436ZM914.793 665.755C914.437 660.877 913.392 655.7 911.686 650.262L913.225 649.779C914.961 655.315 916.035 660.615 916.401 665.637L914.793 665.755ZM905.775 635.557C903.588 631.033 901.025 626.378 898.1 621.614L899.474 620.77C902.424 625.575 905.014 630.277 907.227 634.856L905.775 635.557ZM889.231 608.35C886.229 604.188 882.983 599.961 879.502 595.681L880.753 594.663C884.252 598.965 887.518 603.217 890.539 607.406L889.231 608.35ZM869.149 583.569C865.682 579.696 862.038 575.791 858.224 571.86L859.382 570.737C863.21 574.682 866.869 578.604 870.351 582.493L869.149 583.569ZM846.924 560.622C843.158 557.002 839.256 553.367 835.223 549.724L836.305 548.528C840.349 552.181 844.264 555.827 848.042 559.459L846.924 560.622ZM823.199 539.171C819.215 535.77 815.122 532.368 810.925 528.969L811.94 527.715C816.148 531.123 820.251 534.534 824.246 537.944L823.199 539.171ZM798.383 519.061C794.211 515.846 789.95 512.638 785.602 509.441L786.557 508.142C790.915 511.346 795.186 514.561 799.367 517.784L798.383 519.061ZM772.606 500.102C768.291 497.071 763.9 494.053 759.436 491.054L760.335 489.715C764.808 492.721 769.209 495.745 773.533 498.782L772.606 500.102ZM746.084 482.275C741.639 479.415 737.129 476.575 732.557 473.759L733.403 472.385C737.984 475.208 742.503 478.053 746.957 480.918L746.084 482.275ZM718.865 465.503C716.572 464.15 714.264 462.802 711.942 461.462L712.748 460.065C715.075 461.408 717.387 462.758 719.685 464.114L718.865 465.503ZM711.942 461.462C709.62 460.121 707.299 458.796 704.98 457.487L705.774 456.082C708.097 457.394 710.422 458.722 712.748 460.065L711.942 461.462ZM690.985 449.757C686.26 447.206 681.545 444.72 676.846 442.3L677.585 440.867C682.293 443.291 687.017 445.782 691.751 448.338L690.985 449.757ZM662.568 435.127C657.738 432.761 652.929 430.467 648.147 428.246L648.826 426.783C653.619 429.009 658.438 431.308 663.277 433.679L662.568 435.127ZM633.561 421.66C628.618 419.493 623.709 417.407 618.839 415.402L619.453 413.91C624.334 415.92 629.255 418.011 634.208 420.183L633.561 421.66ZM603.988 409.494C598.945 407.558 593.953 405.715 589.016 403.965L589.555 402.445C594.505 404.2 599.511 406.048 604.566 407.988L603.988 409.494ZM573.864 398.828C568.693 397.157 563.594 395.595 558.576 394.144L559.024 392.594C564.059 394.051 569.173 395.617 574.36 397.294L573.864 398.828ZM543.193 389.977C537.882 388.639 532.678 387.436 527.59 386.37L527.921 384.791C533.031 385.862 538.256 387.07 543.587 388.413L543.193 389.977ZM511.925 383.461C506.478 382.586 501.194 381.888 496.089 381.369L496.252 379.765C501.391 380.286 506.705 380.989 512.181 381.868L511.925 383.461ZM480.168 380.321C474.579 380.17 469.266 380.277 464.254 380.645L464.136 379.037C469.208 378.664 474.575 378.556 480.211 378.708L480.168 380.321ZM448.564 382.879C443.002 384.12 437.996 385.804 433.594 387.934L432.891 386.483C437.423 384.289 442.551 382.568 448.213 381.305L448.564 382.879ZM420.914 397.025C419.122 398.942 417.569 401.028 416.266 403.284L414.869 402.478C416.235 400.112 417.862 397.928 419.736 395.924L420.914 397.025Z" fill="white" fill-opacity="0.8" />
    <ellipse cx="723.028" cy="442.552" rx="285.958" ry="98.261" transform="rotate(30 723.028 442.552)" fill="white" fill-opacity="0.3" />
    <ellipse cx="470.606" cy="879.77" rx="285.958" ry="98.261" transform="rotate(30 470.606 879.77)" fill="white" fill-opacity="0.3" />
    <path d="M791.767 670.455C793.099 662.355 793.047 654.086 791.61 646C790.173 654.086 790.108 662.355 791.453 670.455C783.354 669.122 775.084 669.175 766.998 670.612C775.084 672.049 783.354 672.114 791.453 670.768C790.121 678.868 790.173 687.137 791.61 695.223C793.047 687.137 793.112 678.868 791.767 670.768C799.866 672.101 808.135 672.049 816.222 670.612C808.135 669.175 799.866 669.109 791.767 670.455Z" fill="white" />
    <path d="M308.574 920.341C309.574 914.267 309.535 908.065 308.457 902C307.379 908.065 307.33 914.267 308.339 920.341C302.265 919.342 296.063 919.381 289.998 920.459C296.063 921.536 302.265 921.585 308.339 920.576C307.34 926.651 307.379 932.853 308.457 938.918C309.535 932.853 309.584 926.651 308.574 920.576C314.649 921.576 320.851 921.536 326.916 920.459C320.851 919.381 314.649 919.332 308.574 920.341Z" fill="white" />
    <path d="M595.944 413.38C597.229 405.57 597.179 397.596 595.793 389.799C594.408 397.596 594.345 405.57 595.642 413.38C587.832 412.095 579.858 412.146 572.061 413.531C579.858 414.917 587.832 414.98 595.642 413.683C594.357 421.493 594.408 429.467 595.793 437.264C597.179 429.467 597.242 421.493 595.944 413.683C603.755 414.968 611.729 414.917 619.526 413.531C611.729 412.146 603.755 412.083 595.944 413.38Z" fill="#8120A5" />
    <path d="M776.215 331.783C778.055 320.594 777.983 309.171 775.998 298C774.013 309.171 773.923 320.594 775.781 331.783C764.593 329.943 753.169 330.015 741.998 332C753.169 333.985 764.593 334.075 775.781 332.216C773.941 343.405 774.013 354.829 775.998 366C777.983 354.829 778.073 343.405 776.215 332.216C787.404 334.057 798.827 333.985 809.998 332C798.827 330.015 787.404 329.925 776.215 331.783Z" fill="white" />
    <defs>
        <filter id="filter0_f_87_1734" x="0.348694" y="0.108063" width="1191.76" height="1322.58" filterUnits="userSpaceOnUse" color-interpolation-filters="sRGB">
            <feFlood flood-opacity="0" result="BackgroundImageFix" />
            <feBlend mode="normal" in="SourceGraphic" in2="BackgroundImageFix" result="shape" />
            <feGaussianBlur stdDeviation="120.966" result="effect1_foregroundBlur_87_1734" />
        </filter>
        <linearGradient id="paint0_linear_87_1734" x1="546.791" y1="199.28" x2="1019.98" y2="890.017" gradientUnits="userSpaceOnUse">
            <stop stop-color="#E5DBE1" />
            <stop offset="0.271832" stop-color="#5C399B" />
            <stop offset="0.368244" stop-color="#8120A5" />
            <stop offset="0.695" stop-color="#ED3E44" />
            <stop offset="0.878708" stop-color="#F27D47" />
        </linearGradient>
    </defs>
</svg>