<svg width="440" height="610" viewBox="0 0 440 610" fill="none" xmlns="http://www.w3.org/2000/svg">
<g opacity="0.8" filter="url(#filter0_f_57_1599)">
<ellipse cx="451.292" cy="-2.26408" rx="311.206" ry="318.613" transform="rotate(70.783 451.292 -2.26408)" fill="#D9D9D9"/>
<ellipse cx="451.292" cy="-2.26408" rx="311.206" ry="318.613" transform="rotate(70.783 451.292 -2.26408)" fill="url(#paint0_linear_57_1599)"/>
</g>
<path d="M315.507 165.974L218.635 77.3455C218.252 76.964 217.65 76.9095 217.157 77.1275C216.664 77.3455 216.335 77.8361 216.335 78.3812V119.534L170.172 77.3455C169.789 76.964 169.186 76.9095 168.693 77.1275C168.2 77.3455 167.872 77.8361 167.872 78.3812V119.534L121.763 77.3455C121.38 76.964 120.778 76.9095 120.285 77.1275C119.792 77.3455 119.463 77.8361 119.463 78.3812V119.534L73.3 77.3455C72.9166 76.964 72.3143 76.9095 71.8214 77.1275C71.3286 77.3455 71 77.8361 71 78.3812L71 255.637C71 256.182 71.3286 256.673 71.8214 256.891C71.9857 256.945 72.2047 257 72.369 257C72.6976 257 73.0262 256.891 73.3 256.618L119.463 214.43V255.637C119.463 256.182 119.792 256.673 120.285 256.891C120.449 256.945 120.668 257 120.832 257C121.161 257 121.489 256.891 121.763 256.618L167.927 214.43V255.637C167.927 256.182 168.255 256.673 168.748 256.891C168.912 256.945 169.131 257 169.296 257C169.624 257 169.953 256.891 170.227 256.618L216.39 214.43V255.637C216.39 256.182 216.719 256.673 217.211 256.891C217.376 256.945 217.595 257 217.759 257C218.088 257 218.416 256.891 218.69 256.618L315.562 167.99C315.836 167.718 316 167.391 316 167.009C316 166.628 315.836 166.192 315.507 165.974ZM170.665 81.4336L216.39 123.24V163.848L170.665 122.041V81.4336ZM219.073 125.748L264.141 166.955L219.073 208.162V125.748ZM170.665 125.748L215.733 166.955L170.665 208.162V125.748ZM122.201 81.4336L167.927 123.24V163.848L122.201 122.041V81.4336ZM167.27 166.955L122.201 208.162V125.748L167.27 166.955ZM73.7928 252.476L73.7928 81.4336L119.518 123.24V210.669L73.7928 252.476ZM122.201 252.476V211.868L167.927 170.062V210.669L122.201 252.476ZM170.665 252.476V211.868L216.39 170.062V210.669L170.665 252.476ZM219.073 252.476V211.868L267.099 167.936C267.372 167.663 267.537 167.336 267.537 166.955C267.537 166.573 267.372 166.192 267.099 165.974L219.073 122.041V81.4336L312.605 166.955L219.073 252.476Z" fill="white"/>
<path d="M262.5 301V32L409.5 163.494L262.5 301Z" fill="url(#paint1_radial_57_1599)" fill-opacity="0.3" stroke="white" stroke-opacity="0.8"/>
<defs>
<filter id="filter0_f_57_1599" x="-166.614" y="-614.366" width="1235.81" height="1224.2" filterUnits="userSpaceOnUse" color-interpolation-filters="sRGB">
<feFlood flood-opacity="0" result="BackgroundImageFix"/>
<feBlend mode="normal" in="SourceGraphic" in2="BackgroundImageFix" result="shape"/>
<feGaussianBlur stdDeviation="150" result="effect1_foregroundBlur_57_1599"/>
</filter>
<linearGradient id="paint0_linear_57_1599" x1="290.343" y1="-273.45" x2="730.688" y2="365.122" gradientUnits="userSpaceOnUse">
<stop stop-color="#E5DBE1"/>
<stop offset="0.222083" stop-color="#5C399B"/>
<stop offset="0.327824" stop-color="#8120A5"/>
<stop offset="0.695" stop-color="#ED3E44"/>
<stop offset="0.878708" stop-color="#F27D47"/>
</linearGradient>
<radialGradient id="paint1_radial_57_1599" cx="0" cy="0" r="1" gradientUnits="userSpaceOnUse" gradientTransform="translate(225.5 167) scale(177 310.298)">
<stop offset="0.0270379" stop-color="white" stop-opacity="0"/>
<stop offset="1" stop-color="white"/>
</radialGradient>
</defs>
</svg>
