<svg xmlns="http://www.w3.org/2000/svg" width="52" height="52" viewBox="0 0 52 52" fill="none">
    <rect width="52" height="52" rx="26" fill="#E63811" />
    <path d="M27.8578 26.0003L36.1161 17.742C36.2381 17.6201 36.3349 17.4753 36.4009 17.316C36.467 17.1567 36.501 16.9859 36.501 16.8134C36.501 16.641 36.467 16.4702 36.4009 16.3109C36.3349 16.1515 36.2381 16.0068 36.1161 15.8849C35.9942 15.7629 35.8494 15.6661 35.6901 15.6C35.5308 15.534 35.36 15.5 35.1875 15.5C35.0151 15.5 34.8443 15.534 34.685 15.6C34.5256 15.6661 34.3809 15.7629 34.259 15.8849L26.0007 24.1432L17.742 15.8849C17.6201 15.7629 17.4753 15.6661 17.316 15.6C17.1567 15.534 16.9859 15.5 16.8134 15.5C16.641 15.5 16.4702 15.534 16.3109 15.6C16.1515 15.6661 16.0068 15.7629 15.8849 15.8849C15.7629 16.0068 15.6661 16.1515 15.6 16.3109C15.534 16.4702 15.5 16.641 15.5 16.8134C15.5 16.9859 15.534 17.1567 15.6 17.316C15.6661 17.4753 15.7629 17.6201 15.8849 17.742L24.1436 26.0003L15.8849 34.2586C15.763 34.3805 15.6663 34.5253 15.6003 34.6846C15.5344 34.8439 15.5004 35.0146 15.5004 35.187C15.5005 35.3595 15.5344 35.5302 15.6004 35.6895C15.6664 35.8488 15.7632 35.9935 15.8851 36.1154C16.007 36.2373 16.1518 36.334 16.3111 36.4C16.4704 36.4659 16.6412 36.4999 16.8136 36.4999C16.986 36.4998 17.1567 36.4659 17.316 36.3999C17.4753 36.3339 17.6201 36.2371 17.742 36.1152L26.0007 27.8569L34.259 36.1152C34.5155 36.3717 34.8518 36.5 35.1875 36.5C35.5233 36.5 35.8595 36.3717 36.1161 36.1152C36.2381 35.9933 36.3349 35.8486 36.4009 35.6892C36.467 35.5299 36.501 35.3591 36.501 35.1867C36.501 35.0142 36.467 34.8434 36.4009 34.6841C36.3349 34.5248 36.2381 34.38 36.1161 34.2581L27.8578 26.0003Z" fill="white" />
</svg>