<svg xmlns="http://www.w3.org/2000/svg" width="374" height="80" viewBox="0 0 374 80" fill="none">
    <g clip-path="url(#clip0_142_18365)">
        <path d="M259.048 1.021H269.895V58.2999H259.048V1.021Z" fill="black" />
        <path d="M292.31 1.021H303.157V79.412H292.31V1.021Z" fill="black" />
        <path d="M259.048 1.021H269.944L286.526 39.5741H275.629L259.048 1.021Z" fill="black" />
        <path d="M303.156 1.021H292.291L275.678 39.5942L281.032 52.4252L303.156 1.021Z" fill="black" />
        <path d="M329.501 1.021H340.397L323.816 79.412H312.919L329.501 1.021Z" fill="black" />
        <path d="M329.551 1.021H340.416L357.029 79.412H346.164L329.551 1.021Z" fill="black" />
        <path d="M354.7 68.3975L357.027 79.4127H312.919L315.286 68.3975H354.7Z" fill="black" />
        <path d="M96.8965 0.838379H107.923V50.223H96.8965V0.838379Z" fill="black" />
        <path d="M96.8965 58.1167H107.923V79.0456H96.8965V58.1167Z" fill="black" />
        <path d="M130.159 0.838379H141.005V79.2297H130.159V0.838379Z" fill="black" />
        <path d="M96.8965 0.838379H107.824L141.005 79.2297H130.077L96.8965 0.838379Z" fill="black" />
        <path fill-rule="evenodd" clip-rule="evenodd" d="M183.94 56.9396V23.4927C183.94 17.2095 178.92 12.1159 172.729 12.1159C166.537 12.1159 161.518 17.2095 161.518 23.4927V56.9396C161.518 63.2229 166.537 68.3164 172.729 68.3164C178.92 68.3164 183.94 63.2229 183.94 56.9396ZM172.729 1.02051C160.499 1.02051 150.584 11.0816 150.584 23.4927V56.9396C150.584 69.3507 160.499 79.4118 172.729 79.4118C184.959 79.4118 194.873 69.3507 194.873 56.9396V23.4927C194.873 11.0816 184.959 1.02051 172.729 1.02051Z" fill="black" />
        <path d="M204.453 33.7002H215.481V78.6791H204.453V33.7002Z" fill="black" />
        <path d="M218.734 33.7002H229.628L249.285 78.6791H238.391L218.734 33.7002Z" fill="black" />
        <path d="M204.453 0.470703H215.481V25.622H204.453V0.470703Z" fill="black" />
        <path fill-rule="evenodd" clip-rule="evenodd" d="M227.576 0.470704C239.566 0.470704 249.285 10.3751 249.285 22.5928C249.285 34.8106 239.566 44.715 227.576 44.715H215.48V33.6339H227.576C233.56 33.6339 238.41 28.6906 238.41 22.5928C238.41 16.495 233.56 11.5518 227.576 11.5518H215.48V0.470703L227.576 0.470704Z" fill="black" />
        <path d="M365.535 1.63838C363.569 1.63838 361.889 2.34977 360.496 3.77257C359.11 5.18771 358.417 6.89736 358.417 8.90153C358.417 10.921 359.106 12.6421 360.484 14.0648C361.87 15.4877 363.554 16.199 365.535 16.199C367.516 16.199 369.199 15.4877 370.585 14.0648C371.971 12.6421 372.664 10.921 372.664 8.90153C372.664 6.89736 371.971 5.18771 370.585 3.77257C369.192 2.34977 367.509 1.63838 365.535 1.63838ZM373.839 8.90153C373.839 11.2346 373.029 13.2273 371.41 14.8795C369.79 16.5318 367.832 17.358 365.535 17.358C363.238 17.358 361.283 16.5318 359.671 14.8795C358.066 13.2349 357.264 11.2422 357.264 8.90153C357.264 6.58373 358.074 4.60253 359.694 2.9579C361.305 1.32093 363.253 0.502441 365.535 0.502441C367.832 0.502441 369.79 1.32093 371.41 2.9579C373.029 4.59488 373.839 6.57609 373.839 8.90153ZM367.704 7.06565C367.704 6.3925 367.501 5.94118 367.094 5.7117C366.695 5.48221 366.051 5.36747 365.162 5.36747H363.795V8.71789H365.241C365.919 8.71789 366.427 8.64906 366.766 8.5114C367.392 8.25893 367.704 7.77706 367.704 7.06565ZM365.377 4.25449C366.507 4.25449 367.335 4.3654 367.862 4.58724C368.804 4.985 369.274 5.76525 369.274 6.92796C369.274 7.75407 368.977 8.36221 368.382 8.75234C368.066 8.9589 367.625 9.10802 367.06 9.19983C367.775 9.31457 368.299 9.6167 368.631 10.1063C368.962 10.5959 369.127 11.0739 369.127 11.5406V12.2176C369.127 12.4317 369.135 12.6612 369.15 12.906C369.166 13.1508 369.192 13.3114 369.23 13.3879L369.286 13.5026H367.783C367.775 13.4721 367.768 13.4414 367.761 13.4109C367.753 13.3802 367.746 13.3459 367.738 13.3076L367.704 13.0093V12.2749C367.704 11.204 367.418 10.4964 366.846 10.1522C366.507 9.95328 365.911 9.85389 365.06 9.85389H363.795V13.5026H362.19V4.25449H365.377Z" fill="black" />
        <path d="M58.5637 20.6016V1.04443H62.5312L63.7816 7.25383L65.2604 18.2548H65.8495L65.3686 8.69621L65.1762 1.04443H67.701V20.6016H63.5532L62.2307 13.891L61.0524 3.37907H60.4273L60.8721 13.1943L61.0765 20.6016H58.5637Z" fill="black" />
        <path d="M73.9569 20.8092C72.5142 20.8092 71.4716 20.4995 70.8307 19.8802C70.1975 19.2528 69.8688 18.2138 69.8448 16.7633C69.8208 15.7854 69.8048 14.7994 69.7967 13.8053C69.7887 12.8111 69.7847 11.8169 69.7847 10.8228C69.7847 9.82047 69.7887 8.82638 69.7967 7.84036C69.8048 6.84618 69.8208 5.8561 69.8448 4.8701C69.8688 3.42776 70.1975 2.39693 70.8307 1.77762C71.4716 1.15016 72.5142 0.836426 73.9569 0.836426C75.399 0.836426 76.433 1.15016 77.0582 1.77762C77.692 2.39693 78.0241 3.42776 78.056 4.8701C78.0887 5.86425 78.1085 6.85841 78.1164 7.85254C78.1327 8.8467 78.1405 9.84087 78.1405 10.835C78.1405 11.8292 78.1327 12.8234 78.1164 13.8175C78.1085 14.8035 78.0887 15.7854 78.056 16.7633C78.0241 18.2138 77.692 19.2528 77.0582 19.8802C76.433 20.4995 75.399 20.8092 73.9569 20.8092ZM73.9569 18.6213C74.4693 18.6213 74.8462 18.5112 75.0867 18.2912C75.3273 18.0631 75.4515 17.7085 75.4593 17.2277C75.4998 16.2173 75.5232 15.1702 75.5317 14.0864C75.5473 12.9945 75.5558 11.8944 75.5558 10.7862C75.5558 9.67791 75.5473 8.58595 75.5317 7.51034C75.5154 6.43467 75.4913 5.39977 75.4593 4.40561C75.4515 3.92483 75.3231 3.57444 75.0747 3.35441C74.8341 3.12625 74.4615 3.01217 73.9569 3.01217C73.4516 3.01217 73.0748 3.12625 72.8264 3.35441C72.5858 3.57444 72.4581 3.92483 72.4418 4.40561C72.4098 5.39977 72.3814 6.43467 72.3573 7.51034C72.3417 8.58595 72.3332 9.67791 72.3332 10.7862C72.3417 11.8944 72.3538 12.9945 72.3694 14.0864C72.3857 15.1702 72.4098 16.2173 72.4418 17.2277C72.4581 17.7085 72.5858 18.0631 72.8264 18.2912C73.0748 18.5112 73.4516 18.6213 73.9569 18.6213Z" fill="black" />
        <path d="M81.7584 20.6016V3.3913H78.9935V1.04443H87.1328V3.3913H84.3672V20.6016H81.7584Z" fill="black" />
        <path d="M17.154 50.1105C15.7113 50.1105 14.6692 49.8008 14.028 49.1815C13.3949 48.5541 13.0662 47.5151 13.0422 46.0645C13.0182 45.0867 13.0021 44.1007 12.9941 43.1066C12.9861 42.1124 12.9821 41.1182 12.9821 40.1241C12.9821 39.1218 12.9861 38.1276 12.9941 37.1416C13.0021 36.1474 13.0182 35.1574 13.0422 34.1714C13.0662 32.729 13.3949 31.6982 14.028 31.0789C14.6692 30.4514 15.7113 30.1377 17.154 30.1377C18.5967 30.1377 19.6307 30.4514 20.2558 31.0789C20.889 31.6982 21.2216 32.729 21.2537 34.1714C21.2858 35.1655 21.3058 36.1597 21.3138 37.1538C21.3298 38.148 21.3379 39.1422 21.3379 40.1363C21.3379 41.1304 21.3298 42.1246 21.3138 43.1187C21.3058 44.1048 21.2858 45.0867 21.2537 46.0645C21.2216 47.5151 20.889 48.5541 20.2558 49.1815C19.6307 49.8008 18.5967 50.1105 17.154 50.1105ZM17.154 47.9225C17.6669 47.9225 18.0436 47.8125 18.2841 47.5925C18.5246 47.3643 18.6488 47.0098 18.6568 46.529C18.6969 45.5186 18.7209 44.4715 18.729 43.3876C18.745 42.2957 18.753 41.1956 18.753 40.0874C18.753 38.9791 18.745 37.8872 18.729 36.8116C18.7129 35.736 18.6889 34.701 18.6568 33.7068C18.6488 33.2261 18.5205 32.8757 18.2721 32.6557C18.0316 32.4275 17.6589 32.3134 17.154 32.3134C16.649 32.3134 16.2723 32.4275 16.0238 32.6557C15.7834 32.8757 15.6551 33.2261 15.6391 33.7068C15.607 34.701 15.579 35.736 15.5549 36.8116C15.5389 37.8872 15.5309 38.9791 15.5309 40.0874C15.5389 41.1956 15.5509 42.2957 15.567 43.3876C15.583 44.4715 15.607 45.5186 15.6391 46.529C15.6551 47.0098 15.7834 47.3643 16.0238 47.5925C16.2723 47.8125 16.649 47.9225 17.154 47.9225Z" fill="black" />
        <path d="M23.4114 49.9024V30.3452H27.1985C28.6333 30.3452 29.6712 30.6508 30.3124 31.262C30.9616 31.8731 31.3103 32.8876 31.3584 34.3056C31.3824 34.9004 31.3945 35.4464 31.3945 35.9435C31.4025 36.4324 31.4025 36.9173 31.3945 37.398C31.3945 37.8706 31.3824 38.3718 31.3584 38.9015C31.3344 39.8223 31.178 40.572 30.8895 41.1505C30.609 41.721 30.1721 42.1447 29.579 42.4218L31.683 49.9024H28.9178L27.1264 42.8618H26.0083V49.9024H23.4114ZM26.0083 40.5272H27.1865C27.7075 40.5272 28.0922 40.405 28.3407 40.1605C28.5971 39.9079 28.7374 39.533 28.7615 39.036C28.7856 38.5144 28.8015 37.9807 28.8095 37.4347C28.8176 36.8806 28.8176 36.3305 28.8095 35.7846C28.8015 35.2305 28.7856 34.6926 28.7615 34.1711C28.7374 33.674 28.6012 33.3033 28.3527 33.0588C28.1043 32.8143 27.7195 32.6921 27.1985 32.6921H26.0083V40.5272Z" fill="black" />
        <path d="M33.3208 49.9024V30.3452H37.3003C38.751 30.3452 39.801 30.6671 40.4502 31.3108C41.0994 31.9464 41.4361 33.0017 41.4602 34.4767C41.4842 35.8213 41.5002 37.0965 41.5082 38.3025C41.5162 39.5086 41.5162 40.7187 41.5082 41.9328C41.5002 43.1389 41.4842 44.4142 41.4602 45.7587C41.4361 47.2336 41.0994 48.293 40.4502 48.9368C39.801 49.5805 38.747 49.9024 37.2883 49.9024H33.3208ZM35.9177 47.5555H37.2883C37.8172 47.5555 38.21 47.4333 38.4665 47.1888C38.7229 46.9362 38.8552 46.5573 38.8632 46.0521C38.8873 45.0579 38.9033 44.0678 38.9114 43.0819C38.9194 42.0877 38.9234 41.0976 38.9234 40.1116C38.9234 39.1255 38.9194 38.1396 38.9114 37.1536C38.9033 36.1594 38.8873 35.1653 38.8632 34.1711C38.8552 33.674 38.7229 33.3033 38.4665 33.0588C38.21 32.8143 37.8213 32.6921 37.3003 32.6921H35.9177V47.5555Z" fill="black" />
        <path d="M43.6057 49.9024V30.3452H46.2026V49.9024H43.6057Z" fill="black" />
        <path d="M48.4431 49.9024V30.3452H52.4106L53.6609 36.5547L55.1398 47.5555H55.7289L55.2479 37.997L55.0556 30.3452H57.5804V49.9024H53.4325L52.11 43.1918L50.9318 32.6798H50.3066L50.7515 42.4951L50.9559 49.9024H48.4431Z" fill="black" />
        <path d="M59.075 49.9024L61.4314 30.3452H65.7595L68.116 49.9024H65.459L65.0021 45.0254H62.1888L61.744 49.9024--white-color9.075ZM62.4413 42.6785H64.7617L64.3529 38.3759L63.9321 32.6921H63.2589L62.8501 38.3759L62.4413 42.6785Z" fill="black" />
        <path d="M69.6237 49.9024V30.3452H73.4111C74.8454 30.3452 75.8837 30.6508 76.5245 31.262C77.1738 31.8731 77.5223 32.8876 77.5706 34.3056C77.5947 34.9004 77.6067 35.4464 77.6067 35.9435C77.6146 36.4324 77.6146 36.9173 77.6067 37.398C77.6067 37.8706 77.5947 38.3718 77.5706 38.9015C77.5464 39.8223 77.3903 40.572 77.1015 41.1505C76.8211 41.721 76.3847 42.1447 75.7914 42.4218L77.8956 49.9024H75.13L73.3387 42.8618H72.2203V49.9024H69.6237ZM72.2203 40.5272H73.3991C73.92 40.5272 74.3046 40.405 74.553 40.1605C74.8092 39.9079 74.9497 39.533 74.9738 39.036C74.998 38.5144 75.0136 37.9807 75.0221 37.4347C75.0299 36.8806 75.0299 36.3305 75.0221 35.7846C75.0136 35.2305 74.998 34.6926 74.9738 34.1711C74.9497 33.674 74.8135 33.3033 74.5651 33.0588C74.3167 32.8143 73.932 32.6921 73.4111 32.6921H72.2203V40.5272Z" fill="black" />
        <path d="M81.2077 49.9024V45.0131V44.9887L78.0944 30.3452H80.7514L81.7251 35.479L82.2297 41.1505H82.7832L83.2757 35.479L84.2615 30.3452H86.9306L83.8051 45.0009V45.0254V49.9024H81.2077Z" fill="black" />
        <path d="M0 79.2036V59.6465H4.35222L5.72281 67.3471L6.26383 76.8202H6.80486L7.32181 67.3471L8.71647 59.6465H13.0687V79.2036H10.4597V73.3485L10.9527 61.9933H10.3516L9.20941 73.5077L8.03114 79.1668H5.02549L3.87131 73.5077L2.70511 61.9933H2.14004L2.5969 73.3485V79.2036H0Z" fill="black" />
        <path d="M14.5533 79.2036L16.9098 59.6465H21.238L23.5944 79.2036H20.9374L20.4806 74.3265H17.6673L17.2224 79.2036H14.5533ZM17.9197 71.9797H20.2401L19.8314 67.6771L19.4105 61.9933H18.7372L18.3285 67.6771L17.9197 71.9797Z" fill="black" />
        <path d="M25.1021 79.2036V59.6465H28.8892C30.3239 59.6465 31.3619 59.952 32.0031 60.5632C32.6523 61.1743 33.001 62.1889 33.0491 63.6068C33.0731 64.2017 33.0851 64.7476 33.0851 65.2447C33.0932 65.7336 33.0932 66.2184 33.0851 66.6992C33.0851 67.1719 33.0731 67.673 33.0491 68.2027C33.025 69.1235 32.8688 69.8732 32.5802 70.4518C32.2997 71.0222 31.8629 71.446 31.2697 71.723L33.3737 79.2036H30.6085L28.8171 72.1629H27.699V79.2036H25.1021ZM27.699 69.8284H28.8772C29.3982 69.8284 29.7829 69.7062 30.0314 69.4617C30.2879 69.2091 30.4281 68.8342 30.4522 68.3372C30.4762 67.8156 30.4923 67.2819 30.5003 66.7359C30.5083 66.1818 30.5083 65.6318 30.5003 65.0858C30.4923 64.5317 30.4762 63.9939 30.4522 63.4724C30.4281 62.9753 30.2919 62.6045 30.0434 62.36C29.7949 62.1155 29.4102 61.9933 28.8892 61.9933H27.699V69.8284Z" fill="black" />
        <path d="M35.0115 79.2036V59.6465H37.7767L37.7406 64.3279L37.3078 69.0217H37.8248L39.1713 64.108L40.6982 59.6465H43.5476L40.5179 68.0438L43.764 79.2036H41.119L38.8107 71.0385L37.6564 73.8011V79.2036H35.0115Z" fill="black" />
        <path d="M45.1321 79.2036V59.6465H51.9971V61.9933H47.729V68.1294H51.7566V70.4762H47.729V76.8569H51.9971V79.2036H45.1321Z" fill="black" />
        <path d="M55.4354 79.2036V61.9933H52.6702V59.6465H60.8096V61.9933H58.0443V79.2036H55.4354Z" fill="black" />
        <path d="M62.0625 79.2036V59.6465H64.6594V79.2036H62.0625Z" fill="black" />
        <path d="M66.8998 79.2036V59.6465H70.8672L72.1174 65.8559L73.5964 76.8569H74.1854L73.705 67.2982L73.5119 59.6465H76.0369V79.2036H71.8889L70.5667 72.493L69.3885 61.9811H68.7633L69.2081 71.7963L69.4125 79.2036H66.8998Z" fill="black" />
        <path d="M82.2928 79.411C81.3149 79.411 80.5292 79.277 79.936 79.0081C79.3512 78.7307 78.9183 78.2946 78.638 77.7C78.3654 77.0968 78.2129 76.3105 78.1809 75.3411C78.1568 74.4445 78.1405 73.4989 78.1327 72.5051C78.1249 71.5028 78.1206 70.4924 78.1206 69.4738C78.1206 68.4471 78.1249 67.4406 78.1327 66.4546C78.1405 65.4605 78.1568 64.5193 78.1809 63.6311C78.2207 62.6206 78.3811 61.8098 78.6621 61.1986C78.9424 60.5794 79.3753 60.1312 79.9601 59.8541C80.5534 59.5771 81.3269 59.4385 82.2807 59.4385C83.6511 59.4385 84.6489 59.7522 85.2741 60.3797C85.9072 61.0071 86.2642 62.0421 86.3443 63.4844C86.3685 63.9896 86.3805 64.5274 86.3805 65.0979C86.3805 65.6601 86.3685 66.1939 86.3443 66.6991H83.7476C83.7718 66.145 83.7831 65.5338 83.7831 64.8656C83.7831 64.1892 83.7718 63.574 83.7476 63.0199C83.7235 62.5473 83.5872 62.1969 83.3389 61.9687C83.0983 61.7324 82.7456 61.6143 82.2807 61.6143C81.7918 61.6143 81.4227 61.7324 81.1743 61.9687C80.9338 62.1969 80.8018 62.5473 80.7776 63.0199C80.7457 64.0385 80.7173 65.0856 80.6939 66.1613C80.6776 67.237 80.6698 68.3207 80.6698 69.4127C80.6698 70.5046 80.6776 71.5884 80.6939 72.6643C80.7173 73.7397 80.7457 74.7869 80.7776 75.8053C80.8018 76.286 80.9338 76.6449 81.1743 76.8813C81.4227 77.109 81.796 77.2236 82.2928 77.2236C82.7896 77.2236 83.1742 77.109 83.4467 76.8813C83.7192 76.6449 83.8676 76.286 83.8917 75.8053C83.8995 75.4961 83.9038 75.1537 83.9038 74.7789C83.9116 74.3955 83.9116 74.0207 83.9038 73.6539C83.9038 73.2791 83.8995 72.9332 83.8917 72.6153H82.4248V70.3049H86.4288C86.4522 70.9895 86.4607 71.7636 86.4522 72.6276C86.4522 73.491 86.4366 74.3955 86.4047 75.3411C86.3486 76.7912 85.9994 77.8348 85.3586 78.4698C84.7256 79.0975 83.7036 79.411 82.2928 79.411Z" fill="black" />
    </g>
    <defs>
        <clipPath id="clip0_142_18365">
            <rect width="374" height="80" fill="white" />
        </clipPath>
    </defs>
</svg>