<svg xmlns="http://www.w3.org/2000/svg" width="1284" height="923" viewBox="0 0 1284 923" fill="none">
    <g opacity="0.8" filter="url(#filter0_f_73_500)">
        <ellipse cx="641.919" cy="461.491" rx="362.684" ry="106.227" transform="rotate(-20.4955 641.919 461.491)" fill="#D9D9D9" />
        <ellipse cx="641.919" cy="461.491" rx="362.684" ry="106.227" transform="rotate(-20.4955 641.919 461.491)" fill="url(#paint0_linear_73_500)" />
    </g>
    <path d="M526.678 370.822C528.194 361.607 528.135 352.2 526.5 343C524.865 352.2 524.791 361.607 526.322 370.822C517.107 369.306 507.7 369.365 498.5 371C507.7 372.635 517.107 372.709 526.322 371.178C524.806 380.393 524.865 389.8 526.5 399C528.135 389.8 528.209 380.393 526.678 371.178C535.893 372.694 545.3 372.635 554.5 371C545.3 369.365 535.893 369.291 526.678 370.822Z" fill="#6C4FE4" />
    <path d="M546.092 300.408C546.877 295.636 546.847 290.764 546 286C545.153 290.764 545.115 295.636 545.908 300.408C541.136 299.623 536.264 299.653 531.5 300.5C536.264 301.347 541.136 301.385 545.908 300.592C545.123 305.364 545.153 310.236 546 315C546.847 310.236 546.885 305.364 546.092 300.592C550.864 301.377 555.736 301.347 560.5 300.5C555.736 299.653 550.864 299.615 546.092 300.408Z" fill="#6C4FE4" />
    <path d="M593.621 333.879C594.65 327.626 594.609 321.243 593.5 315C592.391 321.243 592.34 327.626 593.379 333.879C587.126 332.85 580.743 332.891 574.5 334C580.743 335.109 587.126 335.16 593.379 334.121C592.35 340.374 592.391 346.757 593.5 353C594.609 346.757 594.66 340.374 593.621 334.121C599.874 335.15 606.257 335.109 612.5 334C606.257 332.891 599.874 332.84 593.621 333.879Z" fill="#6C4FE4" />
    <defs>
        <filter id="filter0_f_73_500" x="0.134766" y="0.156006" width="1283.57" height="922.67" filterUnits="userSpaceOnUse" color-interpolation-filters="sRGB">
            <feFlood flood-opacity="0" result="BackgroundImageFix" />
            <feBlend mode="normal" in="SourceGraphic" in2="BackgroundImageFix" result="shape" />
            <feGaussianBlur stdDeviation="150" result="effect1_foregroundBlur_73_500" />
        </filter>
        <linearGradient id="paint0_linear_73_500" x1="354.67" y1="445.052" x2="572.848" y2="728.658" gradientUnits="userSpaceOnUse">
            <stop stop-color="#E5DBE1" />
            <stop offset="0.222083" stop-color="#5C399B" />
            <stop offset="0.327824" stop-color="#8120A5" />
            <stop offset="0.630029" stop-color="#ED3E44" />
            <stop offset="0.878708" stop-color="#F27D47" />
        </linearGradient>
    </defs>
</svg>