<svg xmlns="http://www.w3.org/2000/svg" xmlns:xlink="http://www.w3.org/1999/xlink" viewBox="0 0 300 300">
    <style>:root>svg{display:none}:root>svg:target{display:block}</style>
    <svg id="btn-prev" xmlns="http://www.w3.org/2000/svg" viewBox="0 0 21 22" fill="none">
        <path d="M13.6 20.725L4 11.125L13.6 1.52498" stroke-linecap="round" stroke-linejoin="round" />
    </svg>
    <svg id="btn-next" xmlns="http://www.w3.org/2000/svg" viewBox="0 0 21 22" fill="none">
        <path d="M6.99961 1.40002L16.5996 11L6.99961 20.6" stroke-linecap="round" stroke-linejoin="round" />
    </svg>
    <svg id="star" xmlns="http://www.w3.org/2000/svg" viewBox="0 0 24 24">
        <path d="M14.0343 14.0343L24 12L14.0343 9.96571L12 0L9.96571 9.96571L0 12L9.96571 14.0343L12 24L14.0343 14.0343Z"/>
    </svg>
    <svg id="location" xmlns="http://www.w3.org/2000/svg" viewBox="0 0 24 24" fill="none">
        <path d="M11.9999 13.4299C13.723 13.4299 15.1199 12.0331 15.1199 10.3099C15.1199 8.58681 13.723 7.18994 11.9999 7.18994C10.2768 7.18994 8.87988 8.58681 8.87988 10.3099C8.87988 12.0331 10.2768 13.4299 11.9999 13.4299Z" stroke-width="1.5" />
        <path d="M3.61995 8.49C5.58995 -0.169998 18.42 -0.159997 20.38 8.5C21.53 13.58 18.37 17.88 15.6 20.54C13.59 22.48 10.41 22.48 8.38995 20.54C5.62995 17.88 2.46995 13.57 3.61995 8.49Z"  stroke-width="1.5" />
    </svg>
    <svg id="close" xmlns="http://www.w3.org/2000/svg" viewBox="0 0 30 31">
        <path d="M17.654 15.5004L29.4515 3.7028C29.6258 3.52867 29.7641 3.32189 29.8585 3.09428C29.9528 2.86668 30.0014 2.62271 30.0014 2.37632C30.0014 2.12994 29.9528 1.88597 29.8585 1.65836C29.7641 1.43076 29.6258 1.22398 29.4515 1.04985C29.2774 0.875535 29.0706 0.737254 28.843 0.642908C28.6154 0.548561 28.3714 0.5 28.125 0.5C27.8787 0.5 27.6347 0.548561 27.4071 0.642908C27.1795 0.737254 26.9727 0.875535 26.7986 1.04985L15.001 12.8474L3.2028 1.04985C3.02867 0.875535 2.82189 0.737254 2.59428 0.642908C2.36668 0.548561 2.12271 0.5 1.87632 0.5C1.62994 0.5 1.38597 0.548561 1.15836 0.642908C0.930756 0.737254 0.723976 0.875535 0.549846 1.04985C0.375535 1.22398 0.237254 1.43076 0.142908 1.65836C0.0485613 1.88597 0 2.12994 0 2.37632C0 2.62271 0.0485613 2.86668 0.142908 3.09428C0.237254 3.32189 0.375535 3.52867 0.549846 3.7028L12.348 15.5004L0.549846 27.2979C0.375691 27.4721 0.237553 27.6789 0.143317 27.9065C0.0490808 28.1341 0.00059313 28.378 0.000622163 28.6243C0.000651196 28.8706 0.0491964 29.1146 0.143486 29.3421C0.237776 29.5697 0.375963 29.7764 0.550158 29.9506C0.724354 30.1247 0.931146 30.2629 1.15873 30.3571C1.38631 30.4513 1.63022 30.4998 1.87654 30.4998C2.12286 30.4998 2.36677 30.4512 2.59433 30.3569C2.82189 30.2627 3.02864 30.1245 3.2028 29.9503L15.001 18.1527L26.7986 29.9503C27.1651 30.3168 27.6454 30.5 28.125 30.5C28.6047 30.5 29.085 30.3168 29.4515 29.9503C29.6258 29.7761 29.7641 29.5694 29.8585 29.3418C29.9528 29.1141 30.0014 28.8702 30.0014 28.6238C30.0014 28.3774 29.9528 28.1334 29.8585 27.9058C29.7641 27.6782 29.6258 27.4714 29.4515 27.2973L17.654 15.5004Z" />
    </svg>
    <svg id="chevron-bot" xmlns="http://www.w3.org/2000/svg"  viewBox="0 0 18 10" fill="none">
        <path d="M17 1L9 9L1 1" stroke="black" stroke-linecap="round" stroke-linejoin="round" />
    </svg>
    <svg id="upload" xmlns="http://www.w3.org/2000/svg"  viewBox="0 0 24 24">
        <path d="M17.2814 7.37105C17.1455 7.34603 17.0175 7.28915 16.9078 7.20506C16.7982 7.12097 16.71 7.01208 16.6506 6.88732C15.3312 4.10648 12.2783 2.55156 9.22456 3.11436C7.86229 3.36776 6.61089 4.03394 5.64003 5.02259C4.66918 6.01124 4.02583 7.27453 3.79721 8.64117C3.65975 9.45525 3.66925 10.2874 3.82527 11.0981C3.87628 11.3608 3.76321 11.6532 3.53112 11.8641C3.04932 12.3026 2.66429 12.8369 2.40066 13.4327C2.13702 14.0284 2.00056 14.6727 2 15.3242C2 17.9018 4.09732 20 6.67581 20H16.0274C19.5437 20 22.4036 17.1401 22.4036 13.6239C22.4036 10.5931 20.2493 7.9636 17.2806 7.3719L17.2814 7.37105ZM16.0283 18.2989H6.67666C5.03588 18.2989 3.70115 16.9641 3.70115 15.3233C3.70168 14.9088 3.78859 14.4989 3.95634 14.1198C4.12408 13.7407 4.36898 13.4007 4.67542 13.1215C5.34363 12.5136 5.65734 11.6141 5.49411 10.7725C5.37674 10.1606 5.36983 9.53265 5.4737 8.91832C5.81631 6.85926 7.4843 5.15982 9.52976 4.7849C9.85092 4.72629 10.1767 4.69669 10.5032 4.69649C11.4702 4.69159 12.4183 4.96399 13.2353 5.48141C14.0523 5.99883 14.7038 6.73957 15.1127 7.61589C15.2852 7.98048 15.5412 8.29927 15.8599 8.54639C16.1787 8.79351 16.5512 8.962 16.9473 9.03819C18.0059 9.25245 18.958 9.82596 19.6423 10.6616C20.3266 11.4973 20.7011 12.5438 20.7024 13.6239C20.7024 16.2015 18.6051 18.2997 16.0266 18.2997L16.0283 18.2989ZM14.8559 12.5969C14.935 12.6758 14.9976 12.7695 15.0404 12.8726C15.0832 12.9758 15.1052 13.0863 15.1052 13.198C15.1052 13.3096 15.0832 13.4202 15.0404 13.5233C14.9976 13.6264 14.935 13.7201 14.8559 13.799L12.5546 16.1004C12.2378 16.4173 11.8083 16.5958 11.3601 16.5969L11.3525 16.5986L11.3448 16.5969C10.8967 16.5958 10.4672 16.4173 10.1504 16.1004L7.84902 13.799C7.77009 13.7201 7.70747 13.6264 7.66476 13.5233C7.62204 13.4201 7.60005 13.3096 7.60005 13.198C7.60005 13.0863 7.62204 12.9758 7.66476 12.8727C7.70747 12.7695 7.77009 12.6758 7.84902 12.5969C7.92795 12.518 8.02166 12.4554 8.12478 12.4127C8.22791 12.3699 8.33845 12.3479 8.45007 12.3479C8.5617 12.3479 8.67223 12.3699 8.77536 12.4127C8.87849 12.4554 8.9722 12.518 9.05113 12.5969L10.5023 14.0481V9.79737C10.5023 9.5719 10.5919 9.35566 10.7513 9.19623C10.9108 9.0368 11.127 8.94723 11.3525 8.94723C11.578 8.94723 11.7942 9.0368 11.9536 9.19623C12.1131 9.35566 12.2026 9.5719 12.2026 9.79737V14.0481L13.6538 12.5969C13.7327 12.5179 13.8264 12.4552 13.9295 12.4124C14.0327 12.3697 14.1432 12.3476 14.2549 12.3476C14.3665 12.3476 14.4771 12.3697 14.5802 12.4124C14.6834 12.4552 14.7771 12.5179 14.8559 12.5969Z" />
    </svg>
</svg>