<svg xmlns="http://www.w3.org/2000/svg" width="439" height="124" viewBox="0 0 439 124" fill="none">
    <path d="M30.8874 0.110384C13.8301 0.110384 0 13.9644 0 31.0562V92.95C0 110.041 13.8298 123.895 30.8874 123.895H92.664C109.722 123.895 123.552 110.041 123.552 92.95V0.110384H30.8874Z" fill="#B1EC52" />
    <path d="M33.7686 49.5386C32.7581 45.1115 37.1668 41.1943 42.8694 41.1943C48.0061 41.1943 53.155 42.3482 55.1141 49.5237H61.6989V60.4742C53.4892 53.713 35.6906 57.9552 33.7686 49.5386ZM102.094 46.507H87.2601L73.1488 61.9914V31.0551H61.6989V38.5509C61.3253 38.0677 60.9314 37.5876 60.4903 37.119C56.3266 32.703 50.3281 30.4641 42.6586 30.4641C33.7892 30.4641 28.7465 34.4411 26.0775 37.7769C22.7626 41.9181 21.2824 47.5707 22.3067 52.1762C24.9601 64.0988 36.0023 66.0028 44.1142 67.0595C50.5183 67.8941 56.6452 69.0588 56.4826 74.778C56.313 80.7131 49.6353 82.1725 45.2521 82.1725C33.8363 82.1725 33.4512 73.7184 33.4512 73.7184H21.1738C21.3532 76.8932 22.3107 81.99 26.2117 86.3637C30.4831 91.156 36.8895 93.5845 45.2521 93.5845C51.667 93.5845 57.5106 91.4909 61.6989 87.7728V92.8824H73.1488V78.2789L77.1999 73.8393L88.7646 92.8824H102.09L85.2606 64.9912L102.094 46.507ZM175.185 58.7506C174.865 58.1722 174.418 57.594 173.969 57.0165C173.455 56.5029 172.879 55.9893 172.11 55.5396C171.404 55.0899 170.508 54.7696 169.482 54.4485C168.456 54.1911 167.304 54.0627 165.893 54.0627C165.317 54.0627 164.612 54.1275 163.843 54.255C163.073 54.4485 162.24 54.7047 161.407 55.0899C160.574 55.5397 159.741 56.1181 158.908 56.825C158.139 57.5301 157.37 58.4945 156.793 59.6491C156.089 60.8699 155.575 62.281 155.19 63.9505C154.807 65.6197 154.615 67.6103 154.615 69.9221C154.615 72.4262 154.871 74.6091 155.383 76.5996C155.896 78.5911 156.665 80.2606 157.626 81.6079C158.588 82.9571 159.806 83.9833 161.215 84.6904C162.561 85.3964 164.162 85.7815 165.893 85.7815C167.945 85.7815 169.546 85.4602 170.828 84.8828C172.11 84.2404 173.136 83.4698 173.904 82.5712C174.673 81.6737 175.251 80.7094 175.57 79.746C175.954 78.7837 176.276 77.8842 176.467 77.178H186.016C185.504 80.0671 184.671 82.5712 183.453 84.6904C182.235 86.8087 180.761 88.5418 179.031 89.9549C177.3 91.368 175.378 92.3952 173.199 93.1013C171.019 93.8082 168.713 94.1285 166.278 94.1285C162.881 94.1285 159.806 93.5511 157.178 92.3951C154.55 91.3031 152.307 89.6348 150.513 87.5805C148.718 85.4602 147.372 82.8922 146.411 79.8747C145.45 76.9216 145.001 73.5829 145.001 69.9221C145.001 67.0977 145.258 64.5289 145.835 62.2171C146.347 59.9055 147.117 57.8512 148.077 56.0542C149.039 54.255 150.191 52.779 151.538 51.4298C152.82 50.1454 154.229 49.0544 155.832 48.2198C157.37 47.3849 158.973 46.7428 160.702 46.2938C162.432 45.9082 164.163 45.7155 165.893 45.7156C168.392 45.7156 170.636 45.9738 172.558 46.4864C174.481 47.0649 176.211 47.7069 177.684 48.6057C179.159 49.5041 180.377 50.4675 181.402 51.6224C182.427 52.779 183.324 53.9349 183.966 55.0899C184.607 56.3104 185.055 57.5301 185.44 58.6858C185.76 59.9056 185.952 60.9976 186.016 62.0248H176.403L175.954 60.484C175.762 59.9055 175.506 59.393 175.185 58.7506ZM211.612 58.8145H223.405L209.306 73.0044L223.981 92.9726H212.445L202.448 78.5253L198.859 82.1863V92.9726H190.017V58.8145H198.859V71.7849L211.612 58.8145Z" fill="#424B52" />
    <path d="M232.017 79.6833C232.274 80.9667 232.722 82.1226 233.427 83.0859C234.068 84.1131 234.901 84.9478 235.927 85.5262C236.952 86.1047 238.234 86.4247 239.773 86.4247C241.373 86.4247 242.72 86.1047 243.745 85.5262C244.771 84.9478 245.604 84.1131 246.245 83.1508C246.886 82.1875 247.335 81.0964 247.59 79.811C247.848 78.5217 247.977 77.2098 247.974 75.8948C247.974 74.5464 247.846 73.262 247.59 71.9784C247.335 70.694 246.886 69.5381 246.245 68.5758C245.604 67.6114 244.771 66.8416 243.745 66.1993C242.72 65.6209 241.373 65.3647 239.773 65.3647C238.234 65.3647 236.952 65.6857 235.927 66.2642C234.901 66.8416 234.068 67.6753 233.427 68.6396C232.722 69.6668 232.274 70.7579 232.017 72.0422C231.761 73.3258 231.569 74.6102 231.569 75.8948C231.569 77.1795 231.761 78.4626 232.017 79.6833ZM223.558 68.6396C224.327 66.3919 225.48 64.4662 227.018 62.8606C228.557 61.2559 230.351 60.0354 232.53 59.1359C234.708 58.2372 237.08 57.7885 239.773 57.7885C242.528 57.7885 244.963 58.2372 247.141 59.1359C249.32 60.0354 251.115 61.2559 252.588 62.8606C254.063 64.4662 255.218 66.3919 256.051 68.6396C256.818 70.8237 257.202 73.262 257.202 75.8948C257.202 78.5264 256.818 80.9667 256.051 83.1508C255.218 85.3974 254.063 87.3234 252.588 88.9288C251.115 90.4696 249.32 91.7542 247.141 92.6537C244.963 93.5522 242.528 94.002 239.773 94.002C237.08 94.002 234.708 93.5522 232.53 92.6537C230.351 91.7542 228.557 90.4696 227.018 88.9288C225.48 87.3234 224.327 85.3974 223.558 83.1508C222.789 80.9667 222.341 78.5264 222.341 75.8948C222.341 73.262 222.789 70.8237 223.558 68.6396ZM273.866 66.006L273.74 72.3635C273.61 75.9584 273.354 79.1049 273.033 81.8016C272.649 84.499 272.072 86.746 271.304 88.5429C270.471 90.3419 269.382 91.6894 268.034 92.6537C266.69 93.5522 264.895 94.002 262.78 94.002C261.754 94.002 260.921 93.9371 260.153 93.8732C259.383 93.7445 258.806 93.5522 258.294 93.3586V85.9111C258.615 86.0388 258.999 86.1685 259.448 86.297C259.895 86.3608 260.409 86.4247 261.049 86.4247C261.754 86.4247 262.331 86.2324 262.843 85.7826C263.357 85.3975 263.807 84.6916 264.19 83.6005C264.574 82.5075 264.83 81.0305 265.086 79.1049C265.279 77.1792 265.407 74.7389 265.473 71.7222L265.729 58.8157H293.156V92.9738H284.377V66.006H273.866ZM321.209 58.8157H332.999L318.9 73.0056L333.577 92.9738H322.042L312.043 78.5264L308.455 82.1875V92.9738H299.612V58.8157H308.455V71.7861L321.209 58.8157Z" fill="#424B52" />
    <path d="M341.614 79.6833C341.87 80.9667 342.319 82.1226 343.024 83.0859C343.664 84.1131 344.497 84.9478 345.523 85.5262C346.55 86.1047 347.829 86.4247 349.37 86.4247C350.971 86.4247 352.316 86.1047 353.342 85.5262C354.368 84.9478 355.201 84.1131 355.841 83.1508C356.483 82.1875 356.93 81.0964 357.186 79.811C357.445 78.5219 357.575 77.2099 357.572 75.8948C357.572 74.5464 357.444 73.262 357.186 71.9784C356.93 70.694 356.483 69.5381 355.841 68.5758C355.201 67.6114 354.368 66.8416 353.342 66.1993C352.316 65.6209 350.971 65.3647 349.37 65.3647C347.829 65.3647 346.55 65.6857 345.523 66.2642C344.497 66.8416 343.664 67.6753 343.024 68.6396C342.319 69.6668 341.87 70.7579 341.614 72.0422C341.358 73.3258 341.165 74.6102 341.165 75.8948C341.165 77.1795 341.358 78.4626 341.614 79.6833ZM333.156 68.6396C333.923 66.3919 335.078 64.4662 336.616 62.8606C338.154 61.2559 339.948 60.0354 342.126 59.1359C344.306 58.2372 346.677 57.7885 349.37 57.7885C352.125 57.7885 354.561 58.2372 356.739 59.1359C358.917 60.0354 360.711 61.2559 362.187 62.8606C363.66 64.4662 364.814 66.3919 365.647 68.6396C366.415 70.8237 366.799 73.262 366.799 75.8948C366.799 78.5264 366.415 80.9667 365.647 83.1508C364.814 85.3975 363.66 87.3234 362.187 88.9288C360.711 90.4696 358.917 91.7542 356.739 92.6537C354.561 93.5522 352.125 94.002 349.37 94.002C346.677 94.002 344.306 93.5522 342.126 92.6537C339.948 91.7542 338.154 90.4696 336.616 88.9288C335.078 87.3234 333.923 85.3975 333.156 83.1508C332.385 80.9667 331.936 78.5264 331.936 75.8948C331.936 73.262 332.385 70.8237 333.156 68.6396ZM389.717 86.297C390.488 85.975 391.065 85.6539 391.514 85.2052C391.898 84.8201 392.219 84.3696 392.347 83.8567C392.475 83.3424 392.538 82.8934 392.538 82.4436C392.538 81.609 392.475 80.9028 392.219 80.3256C392.026 79.811 391.705 79.3613 391.193 79.041C390.744 78.6561 390.104 78.4626 389.333 78.3341C388.566 78.2064 387.667 78.1415 386.578 78.1415H379.786V86.6811H386.578C387.861 86.6811 388.95 86.5534 389.717 86.297ZM389.143 71.9784C389.783 71.7861 390.294 71.5925 390.681 71.2725C391.065 71.0143 391.383 70.6301 391.514 70.1794C391.705 69.7307 391.77 69.1522 391.77 68.5758C391.77 68.0612 391.705 67.6114 391.514 67.1627C391.383 66.7768 391.065 66.3919 390.681 66.0716C390.36 65.8134 389.845 65.557 389.205 65.3647C388.566 65.1711 387.795 65.1073 386.834 65.1073H379.786V72.2348H386.578C387.602 72.2348 388.435 72.1071 389.143 71.9784ZM393.115 59.2005C394.525 59.5218 395.807 59.9726 396.959 60.6129C398.05 61.3198 398.946 62.2183 399.588 63.3752C400.228 64.5301 400.549 66.006 400.549 67.805C400.549 68.8322 400.484 69.7307 400.228 70.4378C400.038 71.2076 399.716 71.8499 399.332 72.3635C398.946 72.9417 398.499 73.3907 398.05 73.7117C397.536 74.0966 397.089 74.4186 396.512 74.6751C398.243 75.2535 399.523 76.2159 400.421 77.5641C401.317 78.9123 401.766 80.4541 401.766 82.3152C401.766 83.9206 401.51 85.3975 400.999 86.6811C400.421 87.9665 399.651 89.1214 398.627 90.0199C397.601 90.9832 396.382 91.6894 394.909 92.204C393.436 92.7166 391.833 92.9738 390.038 92.9738H370.941V58.8157H388.566C390.166 58.8157 391.642 58.9434 393.115 59.2005ZM413.815 79.6833C414.071 80.9667 414.52 82.1226 415.226 83.0859C415.865 84.1131 416.698 84.9478 417.725 85.5262C418.751 86.1047 420.031 86.4247 421.571 86.4247C423.172 86.4247 424.517 86.1047 425.543 85.5262C426.57 84.9478 427.403 84.1131 428.042 83.1508C428.685 82.1875 429.131 81.0964 429.387 79.811C429.647 78.5219 429.776 77.2099 429.774 75.8948C429.774 74.5464 429.646 73.262 429.387 71.9784C429.131 70.694 428.685 69.5381 428.042 68.5758C427.403 67.6114 426.57 66.8416 425.543 66.1993C424.517 65.6209 423.172 65.3647 421.571 65.3647C420.031 65.3647 418.751 65.6857 417.725 66.2642C416.698 66.8416 415.865 67.6753 415.226 68.6396C414.52 69.6668 414.071 70.7579 413.815 72.0422C413.559 73.3258 413.366 74.6102 413.366 75.8948C413.366 77.1795 413.559 78.4626 413.815 79.6833ZM405.357 68.6396C406.125 66.3919 407.279 64.4662 408.817 62.8606C410.355 61.2559 412.149 60.0354 414.327 59.1359C416.505 58.2372 418.879 57.7885 421.571 57.7885C424.326 57.7885 426.76 58.2372 428.941 59.1359C431.119 60.0354 432.913 61.2559 434.386 62.8606C435.861 64.4662 437.015 66.3919 437.848 68.6396C438.616 70.8237 439 73.262 439 75.8948C439 78.5264 438.616 80.9667 437.848 83.1508C437.015 85.3974 435.861 87.3234 434.386 88.9288C432.913 90.4696 431.119 91.7542 428.941 92.6537C426.76 93.5522 424.326 94.002 421.571 94.002C418.879 94.002 416.505 93.5522 414.327 92.6537C412.149 91.7542 410.355 90.4696 408.817 88.9288C407.279 87.3234 406.125 85.3975 405.357 83.1508C404.587 80.9667 404.138 78.5264 404.138 75.8948C404.138 73.262 404.587 70.8237 405.357 68.6396Z" fill="#424B52" />
</svg>