<svg xmlns="http://www.w3.org/2000/svg" width="1019" height="104" viewBox="0 0 1019 104" fill="none">
<path d="M59.4033 44.1023C56.4518 41.4996 52.5951 39.8658 47.8378 39.2007L41.8401 38.2063V37.9219C58.2124 34.5152 67.0176 22.535 68.2559 1.98357H53.1197C52.4533 11.5493 50.0735 19.1026 45.9804 24.6415C41.8874 30.1803 35.9348 32.9519 28.1313 32.9519H14.8503V1.98357H0V75H14.8503V45.1673H28.5591C34.5568 45.1673 39.5055 46.2344 43.4115 48.3644C47.3111 50.4944 50.1681 53.9289 51.9782 58.6636L58.1178 75H75.2532L66.6866 55.1115C64.7798 50.3789 62.3527 46.7092 59.4033 44.1023Z" fill="#111111"/>
<path d="M153.361 52.0709C151.265 55.9074 148.219 58.8672 144.222 60.9501C140.224 63.0331 135.462 64.0745 129.942 64.0745C121.659 64.0745 115.162 61.8034 110.45 57.2568C105.738 52.7103 103.382 46.4123 103.382 38.3628C103.382 33.1554 104.452 28.6324 106.593 24.798C108.737 20.9614 111.781 18.0273 115.734 15.9893C119.681 13.9534 124.466 12.9354 130.083 12.9354C138.366 12.9354 144.839 15.1852 149.504 19.6826C154.167 24.1821 156.501 30.4074 156.501 38.3628C156.501 43.6685 155.452 48.2365 153.361 52.0709ZM154.145 4.76618C148.575 1.59471 142.221 0.00791168 135.082 0.00791168C127.085 0.00791168 120.16 1.97539 114.307 5.9039C108.451 9.83455 104.381 15.3049 102.096 22.3108H101.81L103.382 1.99677H88.5293V103.424H103.382V66.0634C107.283 69.7588 111.521 72.5047 116.091 74.3032C120.659 76.0996 125.704 77.0021 131.227 77.0021C139.127 77.0021 146.151 75.3682 152.288 72.1005C158.43 68.8349 163.189 64.2413 166.569 58.3218C169.946 52.4045 171.638 45.6574 171.638 38.0784C171.638 30.5977 170.113 23.9682 167.067 18.192C164.021 12.4158 159.715 7.94193 154.145 4.76618Z" fill="#111111"/>
<path d="M200.817 36.9627C201.034 29.343 203.192 23.4214 207.343 19.2491C211.722 14.8437 218.101 12.6431 226.48 12.6431C233.237 12.6431 238.568 14.2299 242.472 17.4014C246.374 20.575 248.659 24.7665 249.325 29.9717L200.817 36.9627ZM259.823 18.1819C256.824 12.3116 252.443 7.8121 246.683 4.68769C240.924 1.56113 234.047 -7.62939e-06 226.05 -7.62939e-06C218.053 -7.62939e-06 210.985 1.61032 204.845 4.82883C198.706 8.04949 193.968 12.5725 190.638 18.3958C187.304 24.219 185.638 30.9213 185.638 38.496C185.638 45.9788 187.353 52.6553 190.78 58.5256C194.206 64.4002 199.155 68.9446 205.63 72.1632C212.103 75.3817 219.767 76.9941 228.621 76.9941C234.522 76.9941 239.854 76.5686 244.615 75.7153C249.373 74.862 254.182 73.4912 259.038 71.5943V58.6668C248.756 62.3622 238.901 64.2078 229.477 64.2078C219.956 64.2078 212.793 61.9366 207.986 57.3901C205.232 54.7853 203.296 51.5583 202.12 47.7431L264.32 38.9237C264.32 30.9662 262.821 24.0565 259.823 18.1819Z" fill="#111111"/>
<path d="M316.912 60.0889C312.341 63.0251 307.201 64.4922 301.49 64.4922C297.872 64.4922 295.062 63.6646 293.065 62.0072C291.066 60.352 290.066 58.1963 290.066 55.5445C290.066 52.4179 291.184 50.0035 293.422 48.2991C295.657 46.5925 298.918 45.7414 303.203 45.7414C311.948 45.7414 319.38 47.8072 325.502 51.9389C323.18 55.1809 320.319 57.9012 316.912 60.0889ZM346.612 32.6727C346.612 22.1596 343.422 14.0866 337.046 8.45154C330.666 2.8186 321.671 -7.62939e-06 310.058 -7.62939e-06C302.82 -7.62939e-06 296.706 1.20614 291.708 3.6227C286.71 6.03712 283.116 9.49514 280.927 13.9925C278.735 18.4899 278.07 23.8191 278.928 29.9717L292.351 28.2695C291.588 23.4385 292.658 19.6041 295.563 16.7619C298.465 13.9219 302.964 12.5019 309.057 12.5019C316.482 12.5019 322.099 14.2769 325.908 17.8269C329.713 21.3791 331.62 26.4709 331.62 33.0983C331.62 35.6859 331.311 38.2052 330.709 40.6623C322.937 36.3083 313.926 34.0927 303.631 34.0927C294.492 34.0927 287.424 35.9875 282.426 39.7748C277.428 43.5644 274.93 48.8658 274.93 55.6856C274.93 62.4092 277.094 67.6423 281.426 71.3826C285.756 75.1229 292.158 76.9941 300.632 76.9941C308.629 76.9941 316.149 74.8855 323.193 70.6726C327.617 68.0251 331.498 64.8643 334.832 61.1881C337.945 65.5935 340.354 70.8544 342.044 76.9941L354.181 72.732C351.645 63.5298 347.719 55.9872 342.446 50.0463C345.208 44.4668 346.612 38.6799 346.612 32.6727Z" fill="#111111"/>
<path d="M426.819 32.5263H382.124V1.98357H367.271V75H382.124V45.4517H426.819V75H441.527V1.98357H426.819V32.5263Z" fill="#111111"/>
<path d="M561.171 75H576.023V14.9111H620.288V75H634.997V1.98355H561.171V75Z" fill="#111111"/>
<path d="M759.034 38.6393C759.034 47.8244 758.152 54.2892 756.392 58.0295C754.629 61.772 751.845 63.6411 748.038 63.6411C746.514 63.6411 744.134 63.3096 740.898 62.6466V75.5741C744.703 76.5172 747.941 76.9941 750.609 76.9941C758.034 76.9941 763.675 74.2012 767.529 68.6132C771.386 63.0251 773.314 53.6968 773.314 40.6281V14.9164H809.154V75.0053H824.007V1.98886H759.034V38.6393Z" fill="#111111"/>
<path d="M860.087 56.8181H859.801L860.231 37.3551V1.98355H845.379V75H860.945L907.067 20.1676H907.211L906.784 39.6284V75H921.634V1.98355H906.212L860.087 56.8181Z" fill="#111111"/>
<path d="M523.333 4.90155C516.955 1.63384 509.719 -7.62939e-06 501.627 -7.62939e-06C493.536 -7.62939e-06 486.278 1.63384 479.851 4.90155C473.425 8.16711 468.403 12.7137 464.787 18.5369C461.167 24.3623 459.359 31.0175 459.359 38.496C459.359 45.9788 461.167 52.6297 464.787 58.4551C466.367 61.0042 468.238 63.2946 470.36 65.354L482.88 57.8071C480.887 56.1027 479.184 54.1224 477.851 51.7785C475.613 47.85 474.496 43.3762 474.496 38.3549C474.496 33.3357 475.613 28.9089 477.851 25.0723C480.087 21.2379 483.254 18.2546 487.349 16.1225C491.44 13.9925 496.201 12.9275 501.627 12.9275C507.053 12.9275 511.813 13.9925 515.908 16.1225C519.999 18.2546 523.165 21.2379 525.403 25.0723C527.639 28.9089 528.759 33.3357 528.759 38.3549C528.759 43.3762 527.639 47.85 525.403 51.7785C523.165 55.7092 520.025 58.7395 515.979 60.8695C511.931 63.0016 507.148 64.0666 501.627 64.0666C497.076 64.0666 493.022 63.2711 489.41 61.7741L480.895 72.5823C487.063 75.51 493.966 76.9941 501.627 76.9941C509.719 76.9941 516.955 75.3603 523.333 72.0926C529.709 68.827 534.733 64.2805 538.398 58.4551C542.061 52.6297 543.895 45.9788 543.895 38.496C543.895 31.0175 542.061 24.3623 538.398 18.5369C534.733 12.7137 529.709 8.16711 523.333 4.90155Z" fill="#111111"/>
<path d="M723.712 13.8578L711.413 21.317C712.454 22.474 713.417 23.6994 714.219 25.0745C716.454 28.9089 717.574 33.3357 717.574 38.3549C717.574 43.3762 716.454 47.8521 714.219 51.7785C711.981 55.7113 708.84 58.7395 704.794 60.8716C700.746 63.0016 695.963 64.0688 690.443 64.0688C685.017 64.0688 680.255 63.0016 676.162 60.8716C672.069 58.7395 668.902 55.7113 666.667 51.7785C664.429 47.8521 663.311 43.3762 663.311 38.3549C663.311 33.3357 664.429 28.9089 666.667 25.0745C668.902 21.2379 672.069 18.2546 676.162 16.1246C680.255 13.9925 685.017 12.9275 690.443 12.9275C695.869 12.9275 700.628 13.9925 704.723 16.1246C704.76 16.1439 704.792 16.1696 704.831 16.1888L713.55 5.67571C713.086 5.4148 712.628 5.14748 712.148 4.90369C705.768 1.63385 698.532 0.00214386 690.443 0.00214386C682.349 0.00214386 675.091 1.63385 668.666 4.90369C662.24 8.16926 657.217 12.7158 653.601 18.5391C649.983 24.3623 648.175 31.0175 648.175 38.496C648.175 45.9809 649.983 52.6318 653.601 58.4551C657.217 64.2805 662.24 68.827 668.666 72.0926C675.091 75.3603 682.349 76.9941 690.443 76.9941C698.532 76.9941 705.768 75.3603 712.148 72.0926C718.525 68.827 723.546 64.2805 727.212 58.4551C730.877 52.6318 732.711 45.9809 732.711 38.496C732.711 31.0175 730.877 24.3623 727.212 18.5391C726.162 16.8689 724.987 15.3184 723.712 13.8578Z" fill="#111111"/>
<path d="M1004.19 47.634C1003.69 49.069 1003.11 50.4655 1002.37 51.7785C1000.13 55.7092 996.987 58.7395 992.942 60.8695C988.894 63.0016 984.111 64.0666 978.59 64.0666C973.164 64.0666 968.403 63.0016 964.312 60.8695C960.216 58.7395 957.05 55.7092 954.814 51.7785C952.576 47.85 951.458 43.3762 951.458 38.3549C951.458 33.3357 952.576 28.9089 954.814 25.0723C957.05 21.2379 960.216 18.2546 964.312 16.1225C968.403 13.9925 973.164 12.9275 978.59 12.9275C984.016 12.9275 988.776 13.9925 992.871 16.1225C996.962 18.2546 1000.13 21.2379 1002.37 25.0723C1003.17 26.4474 1003.78 27.9273 1004.29 29.4564L1018.06 23.7978C1017.31 21.9779 1016.42 20.22 1015.36 18.5391C1011.7 12.7137 1006.67 8.16711 1000.3 4.90155C993.918 1.63384 986.68 -7.62939e-06 978.59 -7.62939e-06C970.499 -7.62939e-06 963.241 1.63384 956.813 4.90155C950.388 8.16711 945.366 12.7137 941.75 18.5391C938.13 24.3623 936.322 31.0175 936.322 38.496C936.322 45.9788 938.13 52.6297 941.75 58.4551C945.366 64.2805 950.388 68.827 956.813 72.0926C963.241 75.3603 970.499 76.9941 978.59 76.9941C986.68 76.9941 993.918 75.3603 1000.3 72.0926C1006.67 68.827 1011.7 64.2805 1015.36 58.4551C1016.81 56.1476 1017.96 53.7032 1018.84 51.137L1004.19 47.634Z" fill="#111111"/>
</svg>